<svg height="64" preserveAspectRatio="none" viewBox="0 0 64 64" width="64" xmlns="http://www.w3.org/2000/svg" xmlns:xlink="http://www.w3.org/1999/xlink"><linearGradient id="a"><stop offset="0" stop-color="#036eb5"/><stop offset=".6743119" stop-color="#1f2228"/><stop offset="1"/></linearGradient><linearGradient id="b" gradientTransform="matrix(-1 0 0 1 64 0)" gradientUnits="userSpaceOnUse" x1="27.441809" x2="33.149483" xlink:href="#a" y1="53.032684" y2="58.74036"/><linearGradient id="c" gradientTransform="matrix(-1 0 0 1 64 0)" gradientUnits="userSpaceOnUse" x1="36.34457" x2="40.47707" y1="40.626732" y2="39.898064"><stop offset="0" stop-color="#036eb5"/><stop offset=".6330275" stop-color="#1d2832"/><stop offset="1"/></linearGradient><linearGradient id="d" gradientTransform="matrix(-1 0 0 1 64 0)" gradientUnits="userSpaceOnUse" x1="35.868515" x2="41.972492" y1="48.21191" y2="49.288204"><stop offset="0" stop-color="#036eb5"/><stop offset=".6055046" stop-color="#1e262f"/><stop offset="1"/></linearGradient><linearGradient id="e" gradientTransform="matrix(-1 0 0 1 64 0)" gradientUnits="userSpaceOnUse" x1="31.046532" x2="34.833744" xlink:href="#a" y1="52.13905" y2="55.926258"/><linearGradient id="f" gradientTransform="matrix(-1 0 0 1 64 0)" gradientUnits="userSpaceOnUse" x1="34.464638" x2="38.778194" xlink:href="#a" y1="49.277775" y2="53.591328"/><linearGradient id="g" gradientTransform="matrix(-1 0 0 1 64 0)" gradientUnits="userSpaceOnUse" x1="40.183498" x2="42.449249" xlink:href="#a" y1="23.713898" y2="24.442175"/><linearGradient id="h" gradientTransform="matrix(-1 0 0 1 64 0)" gradientUnits="userSpaceOnUse" x1="43.651951" x2="45.566486" xlink:href="#a" y1="16.713696" y2="17.192329"/><linearGradient id="i" gradientTransform="matrix(-1 0 0 1 64 0)" gradientUnits="userSpaceOnUse" x1="41.509087" x2="44.908501" xlink:href="#a" y1="20.41333" y2="20.41333"/><linearGradient id="j" gradientTransform="matrix(-1 0 0 1 64 0)" gradientUnits="userSpaceOnUse" x1="38.146133" x2="40.893543" xlink:href="#a" y1="28.309309" y2="29.192406"/><linearGradient id="k" gradientTransform="matrix(-1 0 0 1 64 0)" gradientUnits="userSpaceOnUse" x1="38.995964" x2="49.902523" xlink:href="#a" y1="6.331117" y2="3.356601"/><linearGradient id="l" gradientTransform="matrix(-1 0 0 1 64 0)" gradientUnits="userSpaceOnUse" x1="44.461407" x2="46.638294" xlink:href="#a" y1="13.475874" y2="14.020095"/><linearGradient id="m" gradientTransform="matrix(-1 0 0 1 64 0)" gradientUnits="userSpaceOnUse" x1="45.872665" x2="48.435165" xlink:href="#a" y1="6.585965" y2="7.585965"/><linearGradient id="n" gradientTransform="matrix(-1 0 0 1 64 0)" gradientUnits="userSpaceOnUse" x1="44.658257" x2="47.220757" xlink:href="#a" y1="9.697896" y2="10.697896"/><path d="m45.9707031 33.7353516c.5205078-.2304688 1.0302734-.5195313 1.5410156-.8735352l.3730469-.2578125-.0283203-.4492188c-.0097656-.175293-1.2607422-17.6870117-24.8432617-29.4272461-.2553711-.1289063-2.6523438-1.2949219-5.2734375-1.2050781-.0957031-.0175781-.2529297-.043457-.4570313-.0664063-.2514648-.0288086-.5751953-.0537109-.9458008-.0537109-.7929688 0-1.9584961.1186523-3.0395508.6787109-.3725586.1049805-1.8154297.578125-2.1162109 1.6484375-.2509766.3862305-.7827148 1.3818359-.4165039 2.4140625.0180664.4833984.144043 1.7236328.9165039 2.8022461-.0024414.0249023-.0053711.0512695-.0078125.0786133-.0288086.2954102-.0336914.5952148-.015625.8925781.0112305.1762695.03125.3623047.0644531.5541992.1186523.6938477.3735352 1.3071289.7573242 1.8227539.1079102.1455078.2275391.284668.3574219.4155273.0131836.2294922.0507813.5258789.1425781.8637695.1875.6855469.6391602 1.6542969 1.7241211 2.4711914.0014648.0112305.0029297.0224609.0048828.0341797.1079102.7368164.4326172 2.1083984 1.3974609 3.2055664.0136719.1196289.0341797.2705078.0654297.4462891.0483398.2709961.1206055.6010742.2299805.9599609.2568359.8466797.6313477 1.5869141 1.1137695 2.203125.0126953.1401367.0327148.3261719.0649414.5429688.09375.6210938.2416992 1.1928711.4399414 1.7001953.2485352.6347656.5717773 1.1499023.9624023 1.5351563-.027832.9223633.1787109 3.0263672 2.4199219 4.324707.5864258.6728516 2.2578125 1.4287109 6.8007813 1.4414063-.2431641.0844727-.4726563.1630859-.6889648.237793l-.1889648.0649414c-2.9399414 1.0083008-3.7299805 1.2788086-4.5068359 2.8334961-.234375.4697266-.6152344.859375-1.0244141 1.2773438-.6015625.6142578-1.2768555 1.3046875-1.2993164 2.2636719-.7436523.6757813-1.2929688 1.7695313-.6147461 2.8818359.2578125.4248047.2885742 1.0869141.2314453 1.6015625-.2661133.2060547-.5478516.5146484-.675293.953125-.1035156.3554688-.1357422.9130859.2983398 1.5478516.3754883.5517578.3549805 2.0419922.1298828 2.6230469-.8388672.5869141-1.7910156 1.4433594-1.8339844 2.3320313-.0209961.4257813.1606445.8271484.496582 1.0986328.1679688.1376953.3852539.2861328.6459961.4638672.2148438.1455078.7387695.5.9238281.6875-.1723633.1738281-.4897461.4638672-.918457.8564453-.3476563.3173828-.6982422.6328125-1.0449219.9443359-2.4633789 2.2148438-4.5908203 4.1279297-4.5288086 5.6914063.0205078.5.2451172.9404297.6333008 1.2431641.1757813.1357422.3881836.2050781.6313477.2050781.1948242 0 .3779297-.0429688.5961914-.09375.7661133-.1728516 1.21875-.7470703 1.9677734-1.6962891.5092773-.6455078 1.2060547-1.5292969 2.2714844-2.6230469.5273438-.5400391 1.0683594-.9746094 1.2949219-1.1367188.1132813-.0009766.2856445-.0048828.4916992-.0107422.3637695-.0087891.8364258-.0195313 1.2719727-.0195313.5087891 0 .7670898.015625.894043.0302734.3569336.5791016.9326172 1.3818359 1.9750977 1.3818359h.0029297l.159668-.0136719c.0146484-.0029297.0849609-.0126953.1884766-.0126953.3271484 0 1.4233398.2509766 1.8618164.6308594.8793945.7568359 1.6074219 1.1123047 2.3540039 1.0634766.3295898.2265625.875.5039063 1.5668945.5039063.8813477 0 1.7133789-.4277344 2.4741211-1.2714844.3466797-.3857422.5400391-.7871094.6943359-1.109375.1025391-.2128906.1914063-.3964844.2988281-.5302734.3193359-.3974609.5-.7050781.6318359-.9306641.0429688-.0742188.0947266-.1621094.1298828-.2128906.6103516.0380859 2.6767578-.1308594 4.0927734-3.5009766.5693359-1.3525391 1.0253906-1.8720703 1.6074219-2.5341797.7646484-.8710938 1.6318359-1.8583984 2.9169922-4.6679688.3115234-.6826172.6132813-1.3300781.8974609-1.9414063 1.9501953-4.1835938 3.1347656-6.7255859 1.7724609-8.1464844-.2539061-.3935545-.751953-1.1162107-1.3115233-1.6679685zm-1.3671875 9.3925781c-.2861328.6132813-.5878906 1.2626953-.9013672 1.9472656-1.2226563 2.6757813-2.0390625 3.6044922-2.7626953 4.4277344-.5869141.6689453-1.140625 1.2998047-1.7734375 2.8027344-1.0966797 2.6103516-2.4912109 2.8925781-3.0400391 2.8925781-.0478516 0-.0839844-.0029297-.1855469-.0097656-.5302734.0146484-.7373047.3701172-.9384766.7138672-.1230469.2089844-.2744141.4697266-.5478516.8085938-.1796875.2226563-.3017578.4775391-.4208984.7246094-.140625.2919922-.2851563.59375-.5361328.8730469-.5625.6240234-1.1450195.9404297-1.730957.9404297-.5175781 0-.9155273-.2548828-1.1064453-.40625l-.1606445-.1279297-.2041016.0224609c-.5268555.0585938-1.0634766-.1816406-1.7958984-.8125-.652832-.5654297-2.0043945-.8740234-2.515625-.8740234-.1865234 0-.3129883.0195313-.3066406.0205078l-.081543.0078125c-.5004883 0-.8173828-.4599609-1.1796875-1.0625-.175293-.2890625-.46875-.3515625-1.6523438-.3515625-.4438477 0-.9257813.0117188-1.2963867.0205078-.2241211.0048828-.40625.0097656-.4697266.0253906l-.1953125-.0566406-.1796875.0966797c-.2480469.1318359-.9892578.7226563-1.6333008 1.3837891-1.1025391 1.1308594-1.8178711 2.0380859-2.3408203 2.7001953-.6811523.8642578-.9995117 1.25-1.449707 1.3525391-.1279297.0292969-.2490234.0576172-.3291016.0576172l-.0180663.0048826c-.1577148-.1230469-.2387695-.2841797-.2475586-.4931641-.0429688-1.09375 2.1132813-3.0332031 4.1982422-4.9082031.3486328-.3134766.7011719-.6298828 1.1098633-1.0039063.4760742-.4355469.8496094-.7792969 1.0039063-.9492188.1791992-.2001953.2578125-.4130859.2319336-.6386719-.0634766-.515625-.6518555-.9521484-1.4414063-1.4863281-.2050781-.1396484-.3979492-.2695313-.5483398-.3925781-.0908203-.0732422-.1337891-.1660156-.128418-.2744141.0180664-.375.6254883-1.03125 1.5117188-1.6328125l.1010742-.0693359.0581055-.1074219c.4033203-.7460938.5048828-2.8115234-.1396484-3.7578125-.171875-.2509766-.2275391-.4882813-.1645508-.7050781.0727539-.2480469.2822266-.421875.4458008-.5244141l.1899413-.1191405.0375977-.2216797c.0600586-.3554688.2128906-1.5859375-.3354492-2.4892578-.4833984-.7929688.2416992-1.4814453.5761719-1.7402344l.2197266-.1708984-.0292969-.2773438c-.0668945-.6386719.4550781-1.171875 1.0141602-1.7431641.4394531-.4492188.894043-.9140625 1.1982422-1.5234375.59375-1.1884766 1.0390625-1.3408203 3.9375-2.3349609l.1894531-.0654297c.6567383-.2255859 1.4316406-.4931641 2.3500977-.8222656.4428711-.1582031.965332-.2900391 1.597168-.402832l4.5097656-.8051758-4.5771484-.1865234c-.28125-.0117188-.5649414-.019043-.8544922-.019043-.2060547 0-.4150391.0039063-.6264648.0126953-6.8574219.2744141-8.0107422-.9589844-8.1064453-1.0874023l-.1577148-.1386719c-2.0410156-1.1376953-2.0322266-3.0922852-1.980957-3.6645508l.0234375-.2607422-.2011719-.1679688c-.3476563-.2895508-.6386719-.7290039-.8647461-1.3066406-.168457-.4311523-.3007813-.9443359-.3818359-1.484375-.0419922-.2768555-.0605469-.4970703-.0683594-.6186523l-.0102539-.1625977-.1040039-.125c-.4467773-.5375977-.7924805-1.2041016-1.0288086-1.9819336-.0961914-.315918-.159668-.605957-.2021484-.84375-.0415039-.2353516-.0615234-.4199219-.0712891-.5292969l-.0151367-.1738281-.1196289-.1269531c-.8671875-.9165039-1.1567383-2.1430664-1.2519531-2.793457l-.0522461-.4467773-.1884766-.1298828c-.7797852-.5390625-1.2890625-1.2275391-1.5126953-2.0454102-.1005859-.3696289-.1137695-.6704102-.112793-.8164063l.0014648-.2250977-.1674805-.1508789c-.1469727-.1323242-.2744141-.2729492-.3837891-.4199219-.2890625-.3886719-.4819336-.8579102-.5742188-1.3955078-.0263672-.1557617-.0424805-.3066406-.0517578-.4482422-.0175783-.2875975-.0058596-.5415038.0126951-.7338866.0092773-.0942383.0200195-.1738281.0297852-.234375l.0341797-.2177734-.1376953-.171875c-.7719727-.9663086-.8291016-2.2172852-.8325195-2.4580078l-.0366211-.1806641c-.2832031-.6977539.2255859-1.4863281.3305664-1.6376953l.0795898-.1860352c.1069336-.5273438 1.1621094-.9296875 1.4458008-.9951172l.1367188-.0488281c.9125977-.4853516 1.9277344-.5874023 2.6186523-.5874023.3266602 0 .6113281.0219727.8325195.046875.215332.0249023.3681641.0522461.4350586.0654297l.0600586.012207.0605469-.0029297c2.4282227-.0986328 4.7436523 1.0488281 4.840332 1.0976563 21.9619141 10.9335938 24.1289063 26.9941406 24.2832031 28.4829102-.671875.453125-1.3398438.78125-2.0371094 1.0009766l-1.1669922.3671875 1.0908203.5546875c.4921875.2509766 1.2246094 1.1650391 1.7333984 1.9589844l.0693359.0859375c.9257814.9179686-.2119139 3.3593748-1.9345702 7.0556639z" fill="#868686"/><path d="m19.5152168 54.5299606c.4883194-.4473038.8747025-.7993851 1.0275154-.9687729.1217747-.1350861.1118565-.2126427.10853-.242527-.0409565-.333271-.7407684-.8060417-1.203558-1.1194077-.2269783-.1539001-.4407101-.2989044-.6045284-.4329033-.2148209-.1738663-.3266792-.4185066-.3133678-.6875916.0387154-.7961235 1.2445107-1.6918144 1.7305927-2.0218201.341011-.6321716.4085865-2.4724464-.1129456-3.2386208-.3244381-.4750099-.3044739-.8747025-.2313957-1.1271515.1196022-.4096718.4417992-.6721039.6598835-.8082771.0830612-.4927368.1395016-1.473732-.269022-2.1458359-.6123352-1.0042229.0885658-1.9243584.6964226-2.3960419-.0918922-.8735504.5381069-1.516861 1.1482048-2.1402664.4151783-.4240723.843729-.861393 1.1138382-1.4028282.6854172-1.3707657 1.2943611-1.5800171 4.2218552-2.58424.6942463-.2392006 1.5279942-.5248604 2.5344563-.8852615 1.2301121-.440136 2.7442856-.6632118 4.4997711-.6632118 4.7915726 0 9.8654099 1.6281433 10.4312248 1.9116249.789978.3952789 1.7350082 1.8247261 1.9365196 2.1402664 1.1764221 1.1647797.0382042 3.6073418-1.8324661 7.6221199-.2850838.6123352-.5868073 1.2600594-.8995972 1.9443245-1.2544937 2.7447968-2.0971375 3.7025604-2.8400803 4.5473785-.584053.665451-1.0889473 1.2390099-1.6896362 2.6683922-1.2129631 2.8865395-2.8527527 3.1988182-3.501564 3.1988182-.0885658 0-.152813-.0066528-.171627-.0099831-.4257355.0121613-.3843994.433609-1.1107674 1.3360214-.3355103.4174156-.4526138 1.0378799-.975235 1.6191826-.6616096.7340469-1.3685265 1.1060944-2.1020641 1.1060944-.664938 0-1.1665058-.3155403-1.4172878-.5148773-.6499004.0697517-1.2960243-.1727104-2.1773834-.9322281-.5602474-.4849968-1.7936878-.7518425-2.1878777-.7518425-.1527481 0-.2535343.0166397-.2668457.0188141l-.1217747.0099831c-.8226776 0-1.2766361-.7540131-1.6076641-1.3043442-.1251049-.2070122-3.0286007-.0538788-3.1293888-.0837631-.1826954.0973969-.8810368.6458664-1.5110359 1.2924423-2.5278015 2.5931358-2.9526424 3.944706-3.991868 4.1808968-.3051767.0693665-.5942268.1482697-.8112869-.0200272-.2734365-.2125816-.4251614-.5126381-.439559-.8681145-.0609207-1.5290792 2.7625217-3.8282392 5.4110126-6.2464216z" fill="#ffff80"/><path d="m31.7356529 56.9654846.0061436-.0081902c.6317272-1.0351295 1.2905827-2.1665039 1.9566097-3.362381l.0266228-.0481224.0522156-.0143356c.2017021-.0573349.9214821-.2426567 1.7231674-.2426567.9880333 0 1.7016678.278492 2.1214561.8293343l.0726929.0962448-.089077.080883c-.6757507.615345-1.2578201.6829224-1.4866562.6829224-.0005112 0-.0010223 0-.0015335 0l-.1412926-.0102386c-.5595436 0-.7581749.289753-1.1539001.8661919-.1489716.2170601-.3179131.46381-.5395775.7382088-.1300316.1617699-.2278099.3685913-.3312225.5876999-.1469231.3102303-.3133049.6624413-.6179047 1.001339-.518589.5764389-1.0458794.8682404-1.567028.8682404-.4505024 0-.7965698-.2232018-.9629478-.3563042l-.0926609-.073719.0645046-.100338c.2831001-.4361689.588211-.9245531.9603881-1.5347788z" fill="url(#b)"/><path d="m27.0704002 37.5242844c-.1075077.0798645-.2078457.1832733-.3133049.3266144l-.1136494.1648445c-.3214931.5641518-.3890686 1.3525276-.4474297 2.0487595-.0593834.6972542-.1197929 1.4180565-.4484539 1.698597l-.0255966.0317383-.0450497.0337868c-.0215015.0102386-.0440273.0204773-.0655289.0307159l-.050169.2150116c-.1105766.4679108.2610874 1.1764259.5897484 1.8050804.4156895.7955437.6941814 1.3781242.491457 1.6330681-.0685997.08498-.1177464.1873665-.1556282.3245659l-.0143337.0532417-2.6333885 1.431366.0511932-.2713242c.1945343-1.0228424-.6644897-2.3743477-.8385468-2.6354332-.1218414-.1812248-.162796-.360405-.1218414-.5313873.0829334-.3470917.4730282-.5692711.4853134-.5764389.1290073-.0788383.2272987-.2272987.2907791-.4402618l.015358-.0491486.019453-.011261.0307159-.243679c.0808849-.6378708-.0706463-1.4538956-.2232037-1.9586601-.2518711-.8211403.3849754-1.5726624.5160294-1.7149773l.0368595-.0286713c.228323-.1167183.4443588-.2723465.6593704-.4750748l.2385619-.250847c1.0187492-1.1610641 1.4262486-3.0183601 1.5542316-3.7637367l.0133095-.0747414.0716705-.0266228c.3102322-.1105766.6573238-.2303696 1.0822296-.3757591.2928257-.100338.6163673-.2119408.9614105-.3317299l.2334423-.0808868-.0634804.2385597c-.2488002.9347916-.9194335 3.1760369-1.7815284 3.8046914z" fill="url(#c)"/><path d="m22.5244274 48.4192619c.9122658-.5774612 2.2996063-1.4487724 3.7309742-2.3149643l.1781521-.108532.019453.2078476c.0133114.1412926.038908.2569885.0798626.367569.2027264.54879.7248974 1.0658455 1.3637905 1.3474083l.1986313.0880508-.1709861.1341287c-1.4231758 1.1242065-2.7542038 2.1992683-3.9552002 3.1965141l-.1904392.1576767-.02355-.2467537c-.0030708-.0276451-.0040951-.0542641-.0040951-.0798607-.0010242-.0296936 0-.0583611-.0071659-.089077-.1167221-.526268-.5160294-.9890556-1.1876869-1.3760796-.3624496-.2078438-.5508404-.4105682-.5590324-.6030579-.007166-.1904372.1484603-.3921393.5272921-.68087z" fill="url(#d)"/><path d="m30.5576935 51.2471848.0476093-.0573387.0726948.0122871c.4807053.073719 2.8780899.5313873 2.8791161 2.2187233v.1842957l-.0184288.0307159c-.615345 1.037178-1.234787 2.0446625-1.8409157 2.994812l-.1095543.1709862-.1105766-.1699638c-.8482742-1.300312-2.7137623-1.8521767-3.4765434-2.0282822l-.2057972-.0481186.1341267-.162796c.7730197-.9409333 1.7160014-2.062069 2.6282691-3.1453209z" fill="url(#e)"/><path d="m23.7100658 51.8348846c.0030708-.0204773.0061436-.0419807.0112629-.0604095l.0112629-.0409546.0327625-.0276451c1.1108971-.9122658 2.770586-2.2668419 4.3729401-3.5343895l.1617699-.1290092.0470982.2017021c.1371994.5969162.6040821 2.0630951 1.9786243 2.8023262l.1407814.0757675-.1013622.1228638c-1.0699425 1.300312-2.0538788 2.4644508-2.6907234 3.2128983l-.1535816.181221-.0706463-.2272949c-.5948677-1.9115639-2.7388458-2.2965355-3.6326828-2.372303l-.1627941-.015358.0491447-.1556282c.0030727-.0102387.004095-.0214997.0061435-.0337869z" fill="url(#f)"/><path d="m14.104187 60.7763672c.0144043.3554688.1661377.6555176.4395752.868103.217041.168335.5061035.0894165.8112793.0200195 1.0392456-.236145 1.4640503-1.5877686 3.9918823-4.1809082.6300049-.6465454 1.3283081-1.1950073 1.5110474-1.2924194.100769.0299072 3.0042725-.12323 3.1293945.0838013.3309937.550293.7849731 1.3043213 1.607666 1.3043213l.1217651-.0100098c.0133057-.0021362.1140747-.0187988.2668457-.0187988.394165 0 1.6276245.2668457 2.1878662.7518311.8813477.7595215 1.5274658 1.0020142 2.1773682.932251.2507935.1993408.7523804.5148926 1.4172974.5148926.7335205 0 1.4404297-.3720703 2.1020508-1.1061401.522644-.5812988.6397705-1.2017212.9752197-1.6191406.7263794-.9024048.6850586-1.3238525 1.1107788-1.3360596.0188599.0033569.0830688.0100098.1716309.0100098.6488037 0 2.2886353-.3123169 3.5015869-3.1988525.600708-1.4293823 1.1055908-2.0029297 1.6896362-2.668335.7429199-.8448486 1.5855713-1.8026123 2.8400879-4.5474243.3128052-.6842651.614502-1.3319702.8995972-1.9443359 1.8706665-4.0147705 3.0088501-6.4573364 1.8324585-7.6220703-.2015381-.3155518-1.1465454-1.7449951-1.9365234-2.1402588-.5657959-.2835083-5.6396484-1.9116821-10.4312134-1.9116821-1.7554932 0-3.2696533.2230835-4.4998169.663208-1.0064087.3604126-1.84021.6461182-2.5344238.8853149-2.9274902 1.0042114-3.536438 1.2134399-4.2218628 2.5842285-.2700806.5414429-.6986694.9787598-1.1138306 1.402832-.6101074.6234131-1.2401123 1.2667236-1.1481934 2.1402588-.6078491.4716797-1.3087769 1.3917847-.6964111 2.3960571.4085083.6720581.3520508 1.6530762.2689819 2.145813-.2180786.1361694-.5402832.3986206-.6598511.8082886-.0731201.2524414-.0930786.6520996.2313843 1.1271362.5215454.7661743.4539795 2.6064453.112915 3.2386475-.486084.3299561-1.6918335 1.225647-1.7305908 2.0217896-.0133057.269104.0985718.5137329.3134155.6876221.1638184.1339722.3775024.2789917.6044922.4328613.4628296.3134155 1.1625977.7861328 1.2035522 1.1194458.0033569.0298462.0132446.1074219-.1085205.2424927-.152832.1693726-.5391846.5214844-1.0275269.968811-2.6484984 2.4181516-5.4719237 4.717346-5.4110106 6.2463987zm7.5089722-11.6223755c.0298462.3235474.2705688.616272.7463989.8901367.5723877.3296509.9082031.7064819 1.0003662 1.1201172.045166.203125.0198364.3806763-.0186768.5245361-.6196899.5179443-.737915.5743408-1.3443604 1.098938-.0010986-.0125122-.5004883.4398804-.5019531.4279785-.0874023-.7174683-.3751221-1.7178955-1.0704346-2.1884155-.2037354-.1384277-.3963623-.2679443-.5447388-.3886108-.0100098-.2171021.1835327-.4335327.9287109-.9251099l.1195679-.1196289c.0000002 0 .2624513-.1695557.6851198-.4399414zm10.9439087-3.9707031.0372314-.0002441.0744019-.0005493.2973022.001709c.4346924-.0578003.8948975-.1426392 1.2612305-.2531738.2637939-.065979.5197754-.1484985.7771606-.2279053-.2939453.8833618-2.3093872 3.4873047-4.4044189 6.0484009-1.5911255-.786438-1.914978-2.8016357-1.9180298-2.8226929l-.0027466-.019043c1.5794067-1.2415771 2.9806519-2.2964478 3.7476807-2.7650757l.0238647.012146.0244141.0112915c.1327515.0305175.0474853.0083618.0819092.0151367zm-9.3967896-.8410645c-.102417-.1525879-.1351929-.2928467-.102417-.4279785.0583496-.244751.3276367-.4403076.4259033-.4955444.1688843-.1031494.2792358-.2863159.3482666-.5136108.3787231-.2234497.7335815-.4242554 1.0067139-.5623779.1878662-.0950317.3847046-.1947632.5946655-.2977905-.1202393.508606.241394 1.2081909.5997925 1.8918457.2836304.5426636.6727295 1.2859497.5068359 1.4938354-.0888062.1101685-.1424561.237793-.1795654.3720093-.7924194.4306641-1.5933838.8660889-2.3411255 1.2727661.1947022-1.0264893-.5911865-2.3312989-.8590698-2.7331544zm1.0003052-5.3651123c.2538452-.1304321.4820557-.3008423.6900024-.496521.5266113-.1727905 1.0809937-.3495483 1.6795654-.52948-.3352051.5870972-.4038086 1.3795776-.46521 2.1021118-.0562744.6706543-.1156616 1.3648071-.3921509 1.5961914-.0218506.0183105-.0323486.0412598-.0512695.0606689-.3786011.1766968-.7581787.3612061-1.1370239.5617676-.2058105.1090088-.3999023.2111816-.583252.307251.0800781-.6334839-.0582275-1.4541016-.2280273-2.0129395-.2283324-.7473754.3552857-1.444641.4873658-1.5890502zm2.4265747 1.1201172c.0736694-.8651733.1566162-1.8449707.7156372-2.2545166.0574951-.0420532.112915-.095459.168457-.1481323.6854858-.1856689 1.3839111-.3748169 2.0906372-.5662842.5053101-.1414185 1.0257568-.2322388 1.5292358-.348999.50354-.1206055 1.0066528-.1993408 1.4926758-.2778931.9692383-.170105 1.8848267-.2630615 2.6675415-.3088989.9302368-.0574341 1.5824585-.036499 1.9675293-.0097046l-.3947144.288269-.6196289.5994263c-.4136963.3969116-.8060913.7625122-1.218811 1.1333618l-1.3158569.9887695-.0779419.0585938-.0012817.005127c-.8150024.128418-3.8678589.6787109-7.194397 2.1064453.1061402-.3677979.1520386-.8045655.190918-1.265564zm6.8000488-.1987915c-.1595459.4778442-.3408203.9511108-.5644531 1.3952637-.1726685.2962036-.3238525.6119385-.5384521.867981-.1848145.2880859-.434082.491333-.6605835.7148438l-.1315918.1298218-.0003662.0085449c-.095459.0518799-2.1178589 1.1502075-4.4041748 2.3925781.0603027-.4633179-.2546997-1.0737305-.5905762-1.7133789-.3143311-.6020508-.7463989-1.4262695-.4883423-1.6433105.1253662-.1046143.2154541-.2463379.2890625-.4059448 1.4481811-.6302492 3.5230713-1.3077394 7.0894775-1.7463991zm-1.3917236 4.934021c-.673584.5077515-2.0164795 1.5288086-3.6693726 2.826355-.6966553-.1932983-1.2488403-.7491455-1.423645-1.2238159-.0585327-.15802-.0958252-.3688965-.019165-.5548096 1.9301758-1.156311 3.7901611-2.2063599 4.6263428-2.489624.0274048.3634644.083313.7133179.2438354 1.0769653.0565186.1211548.1396484.2477417.2420044.3649292zm3.9672241-.4464111c.5597534-.1891479 1.1192627-.3789673 1.6698608-.5929565.354187-.142334.7160645-.2908936 1.0727539-.4504395-1.4752808 3.4579468-3.2883301 6.822998-4.8577881 9.5116577-.3868408-1.3306274-2.0327148-1.8284302-2.8013306-1.9842529.0331421-.0393677.0661621-.0785522.0993042-.1179199 2.2993776-2.7313843 4.4197999-5.7875977 4.8171998-6.3660889zm-2.5366211 9.1829223c-.6937866 1.1682739-1.3248901 2.1852417-1.8388062 2.991394-.8395996-1.2877197-2.6074829-1.8649292-3.5568237-2.0848389.7650146-.9308472 1.6872559-2.02771 2.6276245-3.1444702.4161377.0641479 2.7670288.4939575 2.7680054 2.0897827zm-5.8508301.8044434c-.6187134-1.9880371-2.828125-2.3861084-3.7463989-2.4648438.0092773-.0290527.0116577-.069519.0199585-.1011963 1.3425293-1.1034546 2.9100342-2.3779907 4.3699951-3.5335693.1417236.6140747.6356201 2.1298218 2.0447998 2.8880615-.9490356 1.1536255-1.8940429 2.2775269-2.6883545 3.2115479zm-4.9535522-4.7838745c-.3123169-.1791992-.4873657-.3552856-.4935303-.4945679-.0059814-.1658936.2094116-.3685913.4671021-.5656738 1.0115967-.6405029 2.3583374-1.4840698 3.7280273-2.3129883.0116577.1295166.0360107.2622681.086731.3999023.2235718.605835.7880859 1.1376953 1.4334717 1.4223022-1.2209473.9633179-2.5822754 2.0560913-3.9587402 3.1970215-.0060425-.0628662.0016479-.1188354-.0129395-.1849365-.124878-.5631103-.5457154-1.0545654-1.2501221-1.4610595zm-1.0703735-5.2669068.1959839-.0841675s.1467896-.1437378.8630371-.5897827c-.0195313.046936-.048645.0859375-.0613403.1375732-.0686035.2785034-.0081787.5712891.1750488.8467407.501709.7525024.998291 1.8624268.7463989 2.5136108-.0636597.1661987-.3809814.3917236-.6824951.5985718-.5857544.3187256-.6763306.3723755-1.0693359.5866699.1933594-1.0550537.0861206-2.4527588-.4385986-3.2220459-.1096191-.1616211-.1494751-.3000488-.1173706-.4107666.0576171-.1970824.3255614-.3498534.3886718-.3764037zm.5461425-4.666687.1063843-.0661621c.1167603-.0352173.2764893-.1065063.460144-.257019.1818237-.1746216.0127563-.123291.3245239-.2028809.161499-.0579224.3601685-.1290283.5421143-.1964722-.2650146.3864746-.5847778 1.0457153-.3591309 1.786377.3066406 1.0054321.2677612 1.9414673.0961304 2.1885986-.8945313.4613647-1.0663452.5010986-1.4241333.6595459.0743408-.5941162.1101685-1.6567383-.4093018-2.5101929-.4329223-.7097778.617798-1.3740844.6632691-1.4017944zm4.0095215-5.0541992c-.2276611 1.121582-.8300781 3.2421265-2.2208252 3.9259033l-.0686035.0491333c-.0016479.001709-.0131226.0140381-.0177612.0187988-.3242188.0919189-.6322021.1903076-.9006958.2698364-.2970581.1260376-.4849243.1011963-.7400513.0741577-.0628662-.0003052-.1082764.0098267-.1621704.0151367.0923462-.3512573.40271-.6968994.8737183-1.1773071.4395142-.4484863.9367065-.9567261 1.2666016-1.6165771.3912353-.7824096.571228-1.0345459 1.9697875-1.559082zm2.6183472-.9158935c-.3262329 1.2243652-.975708 3.1806641-1.7317505 3.7329712-.1362305.0996704-.2445679.2225342-.3414307.3546143-.5422363.1559448-1.0637207.3060303-1.5552368.4473877 1.022583-1.164856 1.4414063-2.9866333 1.5853271-3.8280029.3154297-.1116943.6697998-.2342529 1.0807495-.3753662.293213-.100525.6172486-.2119752.9623414-.3316041zm15.1062622.3836059c.326416.1184692.5393677.2401733.6853027.3601685-9.4544067-.9485932-12.5169067.1953735-12.5169067.1953735 6-.6999512 10.9850464.1796265 12.3296509.5599976-1.710083.0768433-3.4193726.1708374-5.1287842.3797607l-.8376465.1282959c-.1224365.0332642-.2466431.0632324-.3709106.0975952-.2734375-.02948-.6033936-.0583496-.8379517-.0565186-.4697876-.0007324-1.1368408.0306396-1.9295044.109436-.793396.0700684-1.7157593.1914673-2.6881104.3917847-.4876709.0936279-.9915771.1879272-1.4946899.3240967-.5045776.130249-1.0201416.2440796-1.5294189.3912354-.6213379.178772-1.2368164.3557739-1.8435669.5302734.8547363-1.0317993 1.4472046-3.1741943 1.6519775-4.0026855.3114014-.1090698.6352539-.2230225.9874878-.3487549 1.1376343-.4075317 2.5554199-.6134033 4.2129517-.6134033 3.701416 0 7.6655273 1.0265503 9.3101196 1.5533447zm1.149292 4.3895874c-.2562866.2961426-.2593994.3568726-.5581665.6135864l-.8597412.8023071c-.6088257.4960327-1.2290649.9755859-1.8897705 1.4019165-.6577759.4290771-1.3389893.8197632-2.0359497 1.1884766-.6936646.3925781-1.4024658.6690674-2.1524048.9308472-.7434082.2558594-1.4942017.4957886-2.2515869.7015991-.378479.1056519-.7572021.206604-1.1376953.2859497-.3971558.0994263-.7211914.1382446-1.0678711.1942139l-.2961426-.0136108-.0739136-.0043335h-.000061c-.0206299-.0181885-.0410156-.0338135-.0626221-.046936-.0894775-.0490112-.1640625-.1722412-.2175903-.3182983-.0967407-.2541504-.1280518-.5826416-.126709-.8869629.2254028-.2396851.4475098-.4801025.6010132-.7547607.2253418-.3143311.3656616-.6621094.5308838-.9970093.2784424-.6605225.4816284-1.3312988.6310425-2.0291748l1.2625732-.9867554c.4096069-.3812256.8261719-.7854614 1.2098999-1.1680908l.5689087-.5783691.6662598-.5062866c.196106-.1009521.1574707-.0952759.4043579-.1657104l.8139648-.1401978c1.6932373-.2399292 2.2954712-.0133057 4.012085-.1235962.0595703-.0003052.8110352 0 1.3739624.1439209.1714478.2315674 1.1460571.322998 1.2623901.5076294l-1.2623901 1.1305542c.0112915.010376 1.3536987-.4349365 1.3536987-.4349365l-.3682251.8609009c0-.0000002-.2199097.2622678-.3302002.3931272zm-7.1124878 15.3655396c-.9545898-1.1650391-2.7949829-.9748535-3.7128296-.786499 2.4888306-4.5291748 4.5354004-8.8963623 5.0113525-9.9259644.2165527-.1062012.4381714-.2064819.6430664-.3253784.6971436-.3810425 1.3850098-.7879639 2.046814-1.2327271.0534668-.0355225.1031494-.0761719.1560669-.1123657l-2.3834229 5.8800049c.8737793-.6716309 2.5010376-4.4067383 2.9597168-5.1275024.3162231-.4969482 1.2166138-1.3959351 2.1121826-2.2626953-.2131958.68573-.6879272 2.1845093-1.555542 4.7872925-.4403076 1.3209839-.930542 2.3922729-1.3832397 3.2429199-.3970947.5681763-.7318726.9078369-1.0838013 1.3078613-.6072998.690918-1.1808472 1.3430786-1.8352661 2.8998413-.3130493.7449951-.6478881 1.265625-.9750976 1.6552124zm-6.9832764 4.7471923c.3214111-.4959717.6425171-1.0130615.9627686-1.5373535l.0085449-.003418c-.0007935-.0020142-.0022583-.00354-.0031128-.0054932.6663818-1.0915527 1.3249512-2.2278442 1.9595337-3.3673096.3583984-.100647 2.7503662-.7125854 3.7043457.5407104-.6238403.5681763-1.1705322.6488037-1.3913574.6488037l-.1500244-.0098877c-.8613892 0-.9884644.6505737-1.7950439 1.6537476-.3271484.406311-.4348755 1.015686-.9447632 1.5826416-.4927368.5480347-.9876709.8248901-1.4698486.8248901-.4158936.0000002-.732483-.2085569-.8810426-.3273314zm-4.3305664-2.2251586c.2161255-.3441162.449707-.6104736 1.1040039-1.4155273.8086548.1658325 2.9008789.7248535 3.6186523 2.1129761-.395874.6132202-.4300537.6889038-.6010132.9421997l-.270813.3791504c-.3499146.064209-.3430176-.1639404-1.4093018-1.0863037-.6674193-.5758058-1.8212889-.8553468-2.4415282-.9324952zm-6.5275879-1.2893067c.1704712-.1502686.3314819-.2930298.4685059-.4180908.5259399-.4804688.4990234-.3096313.6795044-.5089722.0813599-.0904541.1426392-.1800537.1901855-.2674561.4520264-.37677 1.053894-.87677 1.7462769-1.4481812l.3201294-.0012817h.0010376c.0542603 0 3.1186523.0215454 3.6848755 2.2637939l.0430298.1709595.008667.0012207c-.9622192 1.12677-1.2542114 1.3109131-1.2542114 1.3109131-.2668457-.0078125-.5137329-.3776245-.828186-.9002075-.2967529-.4938354-3.2630005-.4443359-3.8099976-.4443359-.0855714 0-.7538453.1312866-1.249817.2416382z" fill="#231815"/><path d="m11.6455154 3.9343872c.1886597-.9296265 1.720459-1.3627319 1.8379517-1.3858643 1.0026245-.5339355 2.1048584-.6460571 2.8535767-.6460571.6964722 0 1.2185669.0925293 1.3657227.1221924 2.5818481-.1174316 4.9905396 1.1011353 5.0854492 1.1491699 23.2772827 11.5881958 24.5593262 28.8361816 24.569458 29.0093994l.0100708.1702881-.140625.09729c-1.4528809 1.0061646-2.8891602 1.4742432-4.5200806 1.4742432-1.5424805 0-3.1045532-.4265137-4.7579956-.8786011-2.1713257-.5926514-4.6529541-1.2719727-7.6904297-1.1491699-6.7905273.2705688-8.2226563-.8779907-8.5275879-1.2891235-2.3042603-1.2844238-2.2947388-3.4854736-2.2354126-4.1451416-1.2435303-1.0370483-1.4594727-3.2427979-1.4938354-3.7625122-1.1462402-1.3799438-1.3740234-3.1567383-1.4155273-3.6313477-1.1129761-1.1764526-1.3609619-2.7954712-1.413208-3.3027344-1.7085571-1.1799927-1.8450317-2.762207-1.8414917-3.2765503-1.3882446-1.24646-1.2138062-3.1342163-1.1271973-3.6818237-.8661499-1.0838623-.9373169-2.4382935-.9420776-2.7628174-.3725587-.9171752.2052611-1.8545532.3832396-2.1108398z" fill="#ffff80"/><path d="m22.6364212 22.3120117.0400391.0048828.0253906.0146484c.09375.0546875.1914063.1118164.2744141.1831055.0947266.0649414.1699219.1479492.2431641.2290039.0390625.0419922.0771484.0849609.1259766.1313477.0703125.0825195.1318359.1728516.1914063.2602539.0341797.050293.0683594.1010742.1035156.1494141.0703125.0942383.1171875.1992188.1630859.3007813.0234375.0537109.0478516.1074219.0732422.1557617.1171875.199707.1757813.4228516.2324219.6381836.0302734.1157227.0605469.2314453.1044922.3598633.0371094.2148438.0654297.4326172.0927734.6508789.0136719.1069336.0273438.2138672.0419922.3208008l.0146484.0996094-.1005859.0131836c-.6845703.0888672-1.3662109.1640625-1.9726563.2163086l-.2587891.0170898-.0058594-.1010742c-.0429688-.7441406-.1679688-1.3813477-.3828125-1.9482422-.1416016-.3706055-.3066406-.6821289-.5009766-.9516602-.0898438-.1206055-.2109375-.2763672-.3564453-.4150391l.0517578-.0541992-.0009765-.006836-.0712891.0429688-.1601563-.1489258.2177734-.0239258c.5488282-.0600586 1.1591798-.1069336 1.8144532-.1381836z" fill="url(#g)"/><path d="m20.000679 15.2651367c.0761719.0556641.1650391.1230469.2412109.2016602.0712891.0644531.1298828.1401367.1865234.2128906.03125.0395508.0615234.0791016.1025391.1269531.1337891.2001953.3027344.4697266.4160156.7685547.0917969.1767578.1416016.3686523.1884766.5541992.0263672.0996094.0517578.199707.0878906.3105469.0341797.1870117.0605469.3764648.0878906.5664063l.0498047.3417969-.1005859.0136719c-.7832031.105957-1.5136719.1821289-2.1708984.2275391l-.0966797.0068359-.0273438-.2890625c-.0166016-.1777344-.0322266-.3554688-.0537109-.5209961-.0283203-.1069336-.0498047-.2158203-.0712891-.324707-.0390625-.1987305-.0761719-.3867188-.1552734-.5751953-.0791016-.2563477-.1992188-.5244141-.3720703-.8359375-.03125-.0444336-.0615234-.090332-.0917969-.1362305-.0576172-.0888672-.1132813-.1728516-.1806641-.25l-.1855469-.2148438 2.1152344-.2060547z" fill="url(#h)"/><path d="m20.9049759 18.4980469c.1123047-.0131836.2304688-.0170898.3486328-.0209961.0595703-.0014648.1181641-.003418.1777344-.0068359l.0429688-.0019531.03125.0297852c.1630859.15625.3271484.3764648.4882813.6611328.1533203.3203125.2617188.6313477.3310547.9453125.0585938.2104492.0839844.4291992.1083984.6411133.0136719.1186523.0273438.2368164.0478516.3686523l.0097656 1.0375977-.0878906.0112305c-.7841797.1020508-1.3857422.1621094-1.8935547.1894531l-.1044922.0058594-.0009766-.1044922c-.0097656-.7470703-.0927734-1.3505859-.2636719-1.8994141-.1152344-.3735352-.2558594-.6855469-.4277344-.9526367-.1269531-.190918-.2783203-.3632813-.4619141-.5273438l-.1591797-.1416016.2109375-.0317383c.5185547-.0791016 1.03125-.1538086 1.6025391-.203125z" fill="url(#i)"/><path d="m24.4723587 25.9199219.0341797-.003418.0302734.0185547c.1972656.1240234.3681641.2563477.4990234.3857422.1533203.1191406.2705078.2695313.3837891.4150391.0488281.0620117.0966797.1245117.1484375.184082.1171875.137207.1982422.2958984.2773438.4487305.0419922.081543.0839844.1630859.1279297.2358398.1083984.1582031.1591797.3364258.2089844.5087891.0234375.0839844.0478516.168457.0791016.2519531.0878906.2446289.1699219.5107422.1796875.7939453l.0888672.784668c.0185547.1000977.0097656.1958008 0 .2880859-.0039063.0439453-.0087891.0883789-.0097656.1376953l-.0693359 1.0048828-.0996094-.0068359c-.9150391-.0620117-1.6650391-.1713867-2.2275391-.324707l-.0839844-.0229492.0107422-.0864258c.1474609-1.1357422.1123047-1.9912109-.1162109-2.7749023-.1494141-.5307617-.3828125-.9785156-.6914063-1.3295898-.1445313-.1567383-.3388672-.3549805-.5810547-.5048828l-.2548828-.1640625.2744141-.0322266c.5498046-.0654298 1.1484374-.1357423 1.7910155-.2080079z" fill="url(#j)"/><path d="m14.8053665 2.8867188c.6855469-.3623047.9306641-.4770508 1.53125-.4770508.7597656 0 1.296875.1186523 1.2988281.1191406l.0253906.0058594.0273438-.0019531c2.4951172-.1088867 4.8515625 1.0834961 4.8720703 1.0942383 1.1298828.5625 2.2626953 1.1762695 3.5654297 1.9316406l.1708984.0986328-.1806641.0791016c-.5839843.2578124-.9746093.6098632-1.1621093 1.0463866-.1396484.3276367-.1669922.6899414-.0820313 1.0771484l.0439453.2011719-.251953-.1220703c-.0673828-.0322266-.1357422-.0649414-.1982422-.0966797-.1474609-.0585938-.3007813-.1210938-.4589844-.1855469-.5625-.2304688-1.2001953-.4912109-1.8955078-.6674805l-1.3662109-.375c-.2949219-.0810547-.6083984-.1323242-.9111328-.1816406-.1728516-.027832-.3457031-.0561523-.515625-.0893555l-1.4277344-.2583008-2.8183594-.2338867.1259766-.1479492c.4970703-.5864258.6904297-1.1191406.5751953-1.5839844-.1298828-.5273438-.5976563-.8647461-.9667969-1.0551758l-.1699219-.0878906z" fill="url(#k)"/><path d="m17.7692337 12.3359375c.3574219-.0161133.7207031-.0166016 1.0712891-.0175781l.2822266-.0009766.0302734.0400391c.1171875.15625.234375.3564453.3300781.5649414.0927734.2158203.1845703.449707.2363281.6928711.1367188.4956055.1445313 1.0166016.140625 1.4731445v.0893555l-.0878906.0097656c-.6064453.0698242-1.25.1333008-1.9150391.1884766l-.1044922.0087891-.0068359-.234375c-.0039063-.1923828-.0078125-.3740234-.0371094-.5576172-.0371094-.2651367-.0830078-.5478516-.1699219-.8251953-.0673828-.2719727-.1787109-.5371094-.2890625-.7817383-.0625-.1342773-.140625-.2597656-.2246094-.3920898l-.1455078-.2353516.2626953-.0058594c.209961-.0043946.4189454-.0092774.6269532-.0166016z" fill="url(#l)"/><path d="m15.2614212 5.9091797c.0205078 0 .0419922.0004883.0615234.0029297l1.6630859.1635742.0380859.0117188c.4638672.2509766.8642578.578125 1.1611328.9516602.0429688.0625.0820313.1269531.1201172.1914063.0224609.0380859.0449219.0761719.0634766.1054688.0634766.081543.0898438.1738281.1123047.2553711.0087891.03125.0175781.0625.0244141.0834961.0810547.1674805.0761719.3369141.0712891.5009766l-.0019531.190918-.2353516.0102539c-.5136719.0224609-1.0234375.0449219-1.5107422.0561523l-.6386719.0297852v-.1044925c-.0039063-.8056641-.3876953-1.6142578-1.0830078-2.277832l-.2011719-.1928711.2783203.0209961z" fill="url(#m)"/><path d="m18.5036087 8.4165039.0585938-.0004883.0292969.050293c.3125.5405273.5351563 1.168457.6416016 1.8183594.0371094.2641602.0742188.612793.0361328.9526367.0107422.2192383-.0439453.4233398-.0976563.6206055-.0283203.1020508-.0566406.2041016-.0742188.3081055l-.0136719.0776367-.078125.0048828c-.3681641.0244141-.8037109.0493164-1.2353516.0507813l-.9228516.0146484.0380859-.1298828c.1738281-.6040039.2001953-1.2456055.0751953-1.8544922-.1201172-.5883789-.3447266-1.1455078-.6855469-1.703125l-.0878906-.1425781.6416016-.0361328c.5585939-.0161134 1.1162111-.0244142 1.6748048-.0312501z" fill="url(#n)"/><g fill="#231815"><path d="m11.2622671 6.0452237c.0047464.3245158.0759382 1.6789379.9421043 2.7628312-.0866175.5475836-.2610369 2.4353504 1.127202 3.681798-.0035601.5143604.1328907 2.0965958 1.8414917 3.2765989.052207.5072412.3001919 2.1262579 1.4131546 3.302701.0415287.4746113.2693424 2.2514381 1.4155293 3.6313705.0344086.519701.2503567 2.7254562 1.4938393 3.7624817-.0593262.6597099-.068819 2.8607216 2.2354202 4.1451378.3049374.4111328 1.7370777 1.5596924 8.5275803 1.2891636 3.0375118-.1228065 5.5191364.5564823 7.690485 1.1491528 1.6534271.4520683 3.2154922.878624 4.7579765.878624 1.6308861 0 3.0671768-.4680862 4.5200806-1.4742622l.1406059-.0972939-.0100861-.170269c-.0100861-.173233-1.2921295-17.4212036-24.5694466-29.0094337-.0949211-.0480545-2.5035744-1.2666192-5.0854607-1.149153-.1471291-.0296631-.6692009-.1222124-1.365694-.1222124-.7486992 0-1.8509846.1121271-2.8536005.6460648-.1174669.0231373-1.6492748.4562201-1.8379326 1.3858652-.1779794.256291-.7558192 1.1936485-.3832492 2.1108347zm14.8140307-.4003048c-.6016445.2654114-1.014185.6309366-1.2140408 1.098577-.1810951.4232941-.1543236.836206-.0883961 1.1377325-.0896568-.0433826-.1772385-.0849853-.2709732-.1322241-.6843319-.2688966-1.4721851-.6300464-2.3650494-.8557091-.4433155-.1216192-.9013901-.2473173-1.3668804-.3750916-.4648972-.1284418-.9551544-.1794624-1.4350319-.2734208-.4812851-.0868387-.9625702-.1737523-1.436367-.2592564-.4795055-.0401196-.9514465-.0796456-1.4081116-.117837-.4221077-.0346317-.8270855-.0678549-1.2171564-.0998912.5090208-.5996418.722002-1.1631684.5952663-1.6726341-.1426058-.5800641-.6603031-.9360228-1.0175962-1.1198604.6644554-.3512866.8994627-.4653416 1.4850883-.4653416.7392082 0 1.2707729.1150932 1.2767048.1162798l.039156.0088987.0403423-.002373c2.4395008-.1121268 4.7995071 1.0720284 4.8220501 1.0833006 1.2581654.6264129 2.4297886 1.2733679 3.5609952 1.9288507zm-9.0182095 4.6645398c-.1257725-.6188488-.3664894-1.1933508-.6984196-1.735446l.4718666-.0262518c.5574455-.0158701 1.1151886-.0245466 1.6730061-.0310726.3101273.5358658.5277081 1.160944.6302681 1.7818689.0440502.3148012.068819.6293793.0350037.9435129.0151272.3143559-.1185055.6033497-.1714535.9066563-.4095764.026845-.8194466.0487957-1.2299118.0505018-.2624454.0041523-.5249653.0088243-.7874107.0125322.179018-.6196641.2051219-1.2792262.0770511-1.9023017zm19.4155369 8.1213427c-.0505753.4549599-1.4199791 2.131525-3.6894379 2.181284-.1274033-.1071587-.2571068-.2114239-.3793182-.3254051l-.9218578-.8720989.0002232.0001488c-.0290699-.7878551-.5277824-1.4395561 1.2947235-1.7939568 1.8225098-.3544006 2.3287849-1.2150059 2.3794365-1.9237337.0501289-.7027216 1.2596474-.8134394 1.2804108-.8152933.1419411.1328173.285881.2633352.4292259.3944464.4281883.4184742.8239708.8706903 1.2377739 1.304143.195034.1941452.3706398.4058666.5435791.6199608-.2413864-.1830959-.4710541-.2733459-.656002-.1870251-.7593803.3544006.101223.6872215-.3544006.9004993-.4556276.2132796-1.1137087.0614032-1.1643564.5170306zm1.8150902 3.0430756c1.2546806 1.0692101 3.0802307 3.9231071 3.6124611 4.7763691-1.2078133-.8416195-2.1205482-1.4375534-2.5166283-1.9216576-.3231049-.3948174-1.4367371-1.5329189-1.9917336-2.283474.2838745-.1767177.5923005-.3714561.8959008-.5712375zm-3.8898087 1.4848651c-.1860657.0399704-.429081.0679283-.674099.1387501-.2644463.083725-.5833244.1654472-.914814.2945557-.6657906.2467232-1.4761887.507019-2.3470268.8132172-.8712082.307682-1.8194656.6181812-2.7810745.8805523-1.0272369.2656345-2.064188.4507313-3.0389214.5884438-.0063763-.0038567-.0121613-.0081577-.0186138-.0120144-.0370789-.3292618-.0655556-.66008-.1170216-.9881554-.1121998-.3499508-.1505394-.7230396-.3304482-1.0540085-.0831299-.1662617-.1383781-.3465405-.2460556-.5012341-.1067867-.1544704-.2008209-.3183594-.3204365-.4644508-.0905476-.0914364-.1747913-.1888065-.2652645-.2806892.6403561-.0367813 1.2949486-.0969238 1.9642982-.1135349.8812943-.0415287 1.7642193-.0856533 2.5921211-.1477222.8228569-.122139 1.5879459-.2694912 2.2419453-.4034195.9203014-.186285 1.5599136-.5132484 1.8650723-.6942692.3836937.34758.7913437.6717243 1.1857872 1.0092907.3916284.3423136.7954217.6431731 1.2045518.9346884zm-6.7208691-7.072525-.0161667-.0504274c.2285557.3891077.47995.7622709.7144375 1.1485586.0830574.109457.1664104.2192116.2499142.3286686.0255089.108717.0369301.2025261.02981.275053-.2911434-.0867653-.6199608-.1624069-1.0258274-.1809464-.6089115-.0126801-1.3208294.0058594-2.0776119.0821667-.7489948.1211014-1.543005.2998219-2.3350868.4589653-.5637493.1057491-1.1208992.1930332-1.6674442.2714176-.0278835-.2756443-.0493889-.5527-.0885448-.8281975-.0839462-.3017483-.1135349-.6192188-.2467232-.9100666-.1001873-.3013783-.2498379-.5849581-.418623-.8601589-.0865421-.11057-.1653709-.2268496-.2593307-.3333406.263113-.025732.5240765-.0511684.7894135-.0771236.7322369-.0687447 1.4638042-.1529884 2.1497669-.2419777.3433514-.046052.6715012-.1104956.9915676-.1303701.3183594-.0352993.6322708-.0089731.9251213-.001112.1943684 0 .3598137-.0129776.5314159-.0230637 1.3070353.3114643 1.7539118 1.0719547 1.7539118 1.0719547zm-1.8851718-6.7526817c1.2910175.4687529 1.8733063.9857082 2.1393108 1.3618374-.0870609.1357832-.2322636.2752752-.4067574.4104652-.5208855.1287384-1.0485191.2588854-1.5909863.3587761-1.3343983.2249212-2.688673.463191-4.0534782.6230021-.6816597.0918818-1.3664341.1578817-2.0523968.2034149-.1384525.0100117-.2771282.0189104-.4155807.0289221.0704498-.2800207.1650009-.5574465.1546936-.8474779.0371532-.3480978.0114193-.6921911-.0361156-1.0349493-.1012249-.6061678-.3016014-1.1793356-.5882225-1.7289944.7298641-.0028181 1.4595795.0090466 2.1884041.0498333 1.4315472.0728235 2.8581257.2347851 4.2643833.4891472.1334114.0239524.2642994.0580654.3967457.0860233zm-4.4964238-.8945685c-.7810326-.0398235-1.6076717-.0175753-2.4312706.0156469-.0121632-.2246246-.0169086-.4495459-.1261425-.6474738-.056139-.1262169-.0901775-.2643733-.1816883-.3667855-.0805359-.1087155-.1560287-.2212873-.2409382-.3234773-.2783909-.2951488-.6074295-.5159917-.9531536-.7037597.2114239.0205417.4168415.0404902.6320477.0614028.4646759.0926232.9367657.186656 1.4089298.2807622.4683819.1093831.9469967.1756063 1.3983974.3182864.4521408.1381564.897089.2741623 1.327652.4057188.4353809.1168728.8390236.2777214 1.2199726.4344177.3833237.1495023.7532234.2745328 1.0833015.414988.4206982.1893253.7689438.3566999 1.0797405.5061283-1.3975829-.2201746-2.8065108-.3523243-4.2168483-.3958548zm5.0067044 5.1315871s-.0012589-.0001478-.0017796.0002966c-.0034103.2505054-.1256981.3437967-.6109123.6301947-.2422009.1350422-.8653507.2000046-1.328764.297967-.3076077.0649624-.6261158.146759-.9599018.2204723-.6721687.1279964-1.39254.2545099-2.1162472.3659697-.3353424.0528746-.6708336.0989265-1.0029888.1414194-.019577-.0172043-.0435295-.0342607-.064888-.0513172-.0086021-.4852905-.0384884-.9730272-.1789436-1.4434862-.0611057-.2575512-.163517-.5046453-.2733459-.7464008-.0644436-.1291828-.1322975-.253027-.2086811-.374794.0951462-.0005932.1900673-.0028925.2852116-.0040789.6894474-.0135708 1.3796368-.0176497 2.0717545-.0159445.6082439-.0094175 1.2185631-.0169077 1.8294029-.0359659 2.0532149.0964049 2.4785098.7231148 2.5600833 1.0156678zm2.769804 4.9536075c.0884705-.0375233.1675968-.0758629.2367859-.1121998.0427895.0545788.0825386.1115322.1259212.1655941l1.1673946 1.3003616.5911884.5693855c-.3693066.0050411-.8310146.0433807-1.3502693.1669292-.6274509.1475735-1.3572407.3285942-2.1361217.5584087-.7970505.1771641-1.6471996.3661938-2.4974213.5551472-.7946033.1800556-1.5897255.3469868-2.3502159.4690495-.0031891-.0018539-.0064526-.0037804-.0097141-.0057087l-.0450153-.914444c-.0704498-.3480968-.0950699-.7020531-.2051201-1.0421429-.09025-.3451309-.2242546-.6765423-.3934078-.9954967-.1091614-.1699696-.2208424-.3350468-.3498783-.4907036.463562-.0086021.9345398-.0036335 1.4088535.007267.8024654.033371 1.6030006.0864697 2.3488827.0896568.7426186.0555458 1.4301376.056139 2.020731.0273647.590002-.0437525 1.0851554-.1958502 1.4374065-.3484686zm-4.8232384 7.4004536c-.7062073.0918064-1.3820095.1652241-1.9673386.2155762-.057251.0044498-.1021156.0058594-.1577339.0098629-.0377464-.6675701-.1466103-1.3385525-.3884411-1.9780159-.1311111-.3406086-.2961864-.6729851-.5148792-.9756241-.1116066-.1495018-.2290001-.2961121-.366785-.4275208-.0071182-.0068226-.0146828-.0125332-.0218029-.0192814.5502529-.0605869 1.1537514-.1062679 1.8084183-.1377106.0932159.0545807.1905861.1104946.278019.1847267.1334839.0917339.2315216.230854.350544.3431301.1070099.1253262.1923656.2706013.2908478.4045315.0995216.1340771.1512833.2993755.2301121.4473953.1713066.2929249.2113514.6441364.3242931.9645004.0559901.3193971.0895842.6450254.1347464.9684297zm-3.7458706-3.4715614c-.0077877-.647028-.0727501-1.2996178-.2681561-1.9281082-.1046371-.3398666-.243906-.6734295-.439682-.9780693-.1342258-.2017841-.2944088-.3822861-.4786911-.547287.4917431-.0746021 1.0205631-.1521721 1.599144-.2025261.1675968-.0192814.3466892-.0175743.5196991-.0269184.1805744.1726398.3377171.4040127.4677887.6321964.141716.2961884.2528801.6042404.3240719.9296455.0903244.317173.0990753.6574116.1536541.9832611l.0091228.9487038c-.6805496.0885448-1.325428.1589203-1.8869514.1891022zm-1.4216099-3.7635193c-.0225449-.2428665-.0416775-.4863281-.0739346-.728899-.0780144-.2998219-.1053791-.6130638-.2276669-.9042091-.0921783-.2999687-.2298889-.584959-.3851757-.863718-.0934391-.1310377-.1715279-.2712708-.2800217-.3945951-.0198746-.0235825-.0407124-.0450144-.0604382-.0677061.5837727-.0571022 1.2125587-.1185045 1.8873215-.1844311.0765324.0561371.1591434.1196909.2321148.1948872.1027088.0927715.1805.2153549.2734947.3214006.1585503.2370825.3059769.4854383.4097233.7590075.1354122.2592564.1741982.5581131.2668953.8369484.0492401.2651882.0817966.5354195.1218414.8043919-.7839983.1062677-1.5189055.1828726-2.1641539.2269228zm-1.2331733-3.2131186c-.0063782-.2332277-.0042267-.4669733-.0421963-.6970863-.0390072-.28269-.0854301-.5635262-.1711559-.8359089-.068819-.2760162-.1790924-.5406866-.2955952-.7994976-.0783844-.1704893-.1845055-.3285198-.2838764-.4891462.2393818-.0056362.4786892-.0106792.7180729-.0186138.4323406-.0198746.865572-.0167599 1.2985802-.018465.1186523.1575108.2298164.3514347.3185081.5440226.0932178.219656.1817627.4440584.2314472.6802521.1291847.4653416.141716.9544878.1374149 1.4379978v.0001488l.0003719.0082312c-.682476.0786074-1.3289127.1398619-1.9115714.1880653zm-1.559248-6.9185734c-.0042267-.9349847-.4843254-1.7490916-1.1134081-2.349401.0461264.0033369.0897312-.0026698.1363029.0034113.4122438.0407128.8469591.0836501 1.2967272.1280708.1188755.0115685.2456856.0238791.3664894.0355959.4329338.2338943.8290119.5460997 1.1272755.9203753.0677814.0979629.1239929.2024512.1867294.3016009.0743809.0946994.0870628.2138715.1254768.3208075.0849838.176867.0610313.3676753.0594006.5528483-.5604134.0243235-1.1171913.0498343-1.65061.0617733zm12.2955513 1.0605336c-.553072-.2924051-1.3623581-.6149187-2.5606785-.8858919l-.0020752.0043011c-.2255898-.1617384-.5322323-.3114634-.8820362-.4783192-.0826111-.2312989-.2056408-.7154765.0017052-1.1986904.1894741-.4413886.623373-.7782145 1.2646923-1.0168548.9291248.5463963 1.8064156 1.1027298 2.6529293 1.664032.2149086.8204846-.1780548 1.5249858-.4745369 1.9114232zm.6023102 1.8661127c.1640377-.1187267.3323765-.2525826.4653416-.4557009.0550251-.0766058.0980377-.1750135.128664-.2785378.9960175.3396435 1.9679317.8243408 2.8775558 1.3901663.6031265.3626328 1.1726608.7765827 1.7310715 1.2061806-.9789619-.6078739-1.5110474-.4338245-1.5110474.0191326 0 .6075029-1.4681797 1.0125542-2.632534 1.4681807-1.1643562.4556265-.7593784 1.4681063-.9930496 1.9743834-.0378952.0821667-.0795727.1303692-.1220646.1656685-.0563602-.0700779-.1133137-.1393433-.1701183-.2091255-.304493-.4690495-.6610451-.9131813-.9257145-1.404108-.2654114-.4314508-.4792843-.8802557-.6741714-1.3364754.1166515-.1202106.238493-.2353783.3312645-.3762779.0650368-.1051559.1418648-.2011166.186655-.3211784.0469418-.1171694.111311-.226182.1405296-.3514347.0670395-.2513962.1027088-.5070934.0623665-.7710218.0003719-.0723782-.0273647-.1367474-.044569-.2040825.0419731-.0128288.0843925-.0172787.1263657-.0310726.3454284-.1169474.6909312-.2614071 1.0234546-.4846966zm16.776844 17.2301731c-.4347878-1.0716572-.8548927-2.1532516-1.3463364-3.2023659-.574131-1.0781841-1.05616-2.2067947-1.7074165-3.2446365l-.9383202-1.5783062c-.331337-.5146561-.6921921-1.0108471-1.0372505-1.5172729-.3375664-.5122089-.7056847-1.0026894-1.1040611-1.4706268-.3978615-.4672699-.7503319-.9726582-1.1868286-1.4072971-.4245529-.4440584-.8307152-.9059887-1.2708435-1.334919-.454071-.4150629-.8960533-.8435478-1.3605766-1.2468929-.4859581-.3785028-.9454422-.7908955-1.4546127-1.1394386-.5099106-.3475046-1.0088463-.7098408-1.5497551-1.010848-.9374313-.5560369-1.9134979-1.0412531-2.9688416-1.3874969.2902546-.4459114-.3170986-1.5932846-.757597-2.3141751 11.170721 7.486253 15.2419948 16.0736038 16.6824398 20.8542759zm-5.7123184-9.2638207c.0328522.0473862.0726776.0892124.1048622.137043.3448334.4921875.705761.9738445 1.038063 1.4749298l.943512 1.5398922c.6551132 1.0119591 1.1449242 2.1200294 1.7264748 3.1760387.2768288.5358658.4915924 1.1016922.7550774 1.6448994l.7644196 1.6440105c.0950699.2324104.2023773.4618549.300415.6935253-1.4884262-2.5804024-4.4198189-7.3236256-6.6058502-8.784687.2430153-.1892509.425148-.3540287.4850693-.463932.2519148-.4620037-.3688623-1.0722503.4879569-1.0617199zm5.7634887 10.7439404c-.6795845-.7301598-2.3911514-2.5247097-3.5682602-3.3626957-.085804-.0611057-.1568451-.1091595-.2401237-.16782-.9189682-2.0187283-3.0409241-4.3988304-3.7153931-5.1275082.184433-.1237698.3558121-.2433128.51688-.3599625.3439484.2192117 2.1866265 1.6400796 7.006897 9.0179864zm.6950112 1.84305c-.667572-.7276382-1.3771172-1.411005-2.0924454-2.0887356-.8390961-.7885952-1.7404137-1.5038509-2.6281586-2.235939l-1.3488617-1.0769215c-.4455414-.3641167-.928978-.680624-1.3917236-1.0233078l-2.8066597-2.0193977-.3150215-.2272186c.0168343-.1942196.1077499-.4114304.3909607-.5842915.1258469-.0767536.3228073-.1967411.5428352-.3319321.642952.6981983 1.8741226 2.005085 2.7912331 2.7873039 1.2810822 1.0927181 3.6046028 2.3673477 6.3702507 5.3043022.1353378.3084221.2610359.6192188.4013443.9265289.038414.2269994.0671844.4216634.0862465.5696088zm-4.5254479 1.432188c-1.2923508 0-2.0672035-.2683525-3.512764-.6585732.3347473-.3116837 1.5550919-.9309044 4.2178841-.1701164 1.3912048.3974876 2.2783585.3488388 2.2783585.3488388s-1.0459786.4798508-2.9834786.4798508zm-15.4549522-1.979475.0355968-.5047188.0288467-.417881s1.8193188.0990009 5.5782413-.0528736c3.7589226-.1518764 8.3911285 1.40485 8.3911285 1.40485-1.0345764-.1254025-2.134491.5446167-2.490818.7845154-.0561371-.015274-.107975-.0286217-.1646309-.0441208-2.211689-.604538-4.7508621-1.3016243-7.8738041-1.1705112-1.4402235.0577678-2.5811442.0485725-3.5045603.00074zm-.2028217-3.0012493c-.0994453-.2643738-.1376381-.5529213-.297226-.793417-.1460915-.2433853-.2494678-.5141373-.4328594-.7337189-.1850986-.2169132-.339941-.4608173-.5669384-.6405773-.0613289-.058733-.1274776-.1099014-.1916237-.1636658.8790684-.0949974 1.80686-.1873989 2.7447357-.2619267 1.00284-.0740833 2.0150967-.1273289 2.9646168-.2398281.9497414-.1110878 1.8292542-.2943325 2.5761757-.5352726.3755341-.1133137.7110252-.2376766.9952011-.4173603.2820206-.1796856.5188828-.3172493.6950836-.5110226.146904-.1474266.2470207-.2719383.3237-.3755379.2161674.1500225.4330826.3013058.6502914.4596329l2.8018379 1.9660778c.4625244.334156.9444771.6410961 1.3913536.9976463l1.3521957 1.0536385c.4471741.3558102.9139252.6870003 1.3702202 1.031908.4658585.3331184.9044304.6999035 1.3609467 1.0456295.8079529.6081696 1.1147079.8403931 1.9466133 1.4266872.0033379.0288467.2922974.2886162.2922974.2886162-6.7509041-2.2644901-6.9170227-3.2043972-9.7267227-4.4953403-2.8096962-1.2909431-4.207428-.4485073-4.207428-.4485073 2.9995422.4935951 2.9164848 1.4356995 2.9164848 1.4356995-3.0754814-.4556274-7.6127644 1.5757103-8.0683918 1.7845383-.2601471.1192455-.4734993.1311111-.6169949.1211739.0089722-.1113853.0248432-.2226219.0051918-.3345261l-.0938854-.8382835c-.0121612-.2829113-.0905456-.5539589-.1848754-.8222637zm-2.4963074-.1578083c-.1392689-.4918156-.366045-.9743614-.7146606-1.3695507-.1772385-.1930332-.3679733-.3778343-.5931911-.5179195-.0098629-.0063038-.020319-.0106773-.0301819-.0168343.5492878-.0657024 1.1484852-.1360054 1.7895813-.2078648.1698971.1070099.3419437.2343407.4913712.3805046.2069016.1607018.3475056.3879223.5182915.5850334.1695251.1999302.2627411.4531059.3991928.676321.1497974.2195091.1825027.4927063.2761631.7379475.0888424.2493935.1635933.5024204.1739006.7714653l.0901775.7925262c.0244713.1314831-.0094929.2665997-.0112724.3997135l-.0278835.4008236-.0343361.5044975c-1.0099583-.0689678-1.7165356-.1880665-2.2079811-.3219204.1197661-.9269007.1502436-1.8868025-.1191713-2.8147429zm-3.1252422-1.6659603c.3059769-.0448647.6810665-.0967751 1.0879726-.1506138.1738262.0534668.3608532.1390457.5227394.2459812.1945171.1197662.35989.2815037.515398.449398.3053837.3447609.5100594.7751732.6379814 1.2262039.2434616.8284187.2255154 1.722023.1176891 2.5969391-.7369823-.2674141-.7808838-.543726-.7847404-.5492134l-.0427151-.0907707-.0794964-.0302563c-2.3324184-1.2563114-2.0110168-3.4884681-1.9748286-3.697668zm-1.5046654-3.7576618c.2281837-.0258808.4866238-.0552464.7650127-.0869122l.0136452.0071182c.1066399.0556927.2487259.1629257.3600368.2698612.1184311.1077518.2229939.2333755.3235531.3619652.1974812.2613335.3531399.5578918.4795055.8671303.2335224.5801392.3513603 1.210186.4006748 1.846981-.406311.0240269-.7791042.0408611-1.0715828.0476093-1.0568999-.8977584-1.2458552-2.9262771-1.2708453-3.313753zm-1.4206467-3.7011528c.2646694-.0484238.5666428-.0981846.9072495-.1431236.0079346-.0011864.0177231-.0026703.0257339-.0038567.225811.1549892.4366417.406683.5887394.6670513.1643353.2790565.2797985.5884438.3635979.9056168.160181.5962315.1984463 1.2244244.1789417 1.8502445-.2985592.0176487-.5747242.0301075-.8114357.034111-1.0896778-1.3485622-1.2412586-3.1382923-1.2528267-3.3100433zm-1.4170856-3.3305846c.2561417-.024992.5579643-.0545063.880331-.0860233l.0526505.0358181c.0844669.0574722.1946659.1622581.2835064.2621489.0959606.0983334.1701927.2214355.2576256.3308926.1480198.2423496.2855091.4940414.3826561.7682781.1259193.2617035.1630726.5580387.2504311.8366508.0402679.2277393.0689678.4590378.1009293.689743-.4016399.0312214-.7413578.057621-1.0341339.0804615-.9980928-1.140625-1.158867-2.7058782-1.1739961-2.9179697zm-1.8305169-3.0961723c.3247385-.0227661.6503658-.0562115.9751787-.0708208.3001909-.0212831.6005316-.0313692.9008722-.0402679.2735672.4070539.4832878.8981285.6120262 1.3891287.0744534.2524338.110939.5121355.1417885.7725039.033371.2261076.0223961.4555531.0264015.683589-.0340385.0026693-.0743809.0062294-.1077518.0088243-.3385315.0229893-.6256714.0384884-.8838902.0510206-1.5345515-1.0126277-1.6648473-2.3650475-1.6646251-2.7939778zm-1.1154851-3.7404566.0103827-.0482025c.3488388-.0763092.7034626-.0942554 1.0557137-.1239185l1.2281313-.0683737.0267706.0406389c.6806965 1.0325022 1.0302773 2.3896685.6334572 3.5730076-.2889194.000371-.5778389-.0006676-.8668327-.0156469-.3776865-.0100117-.7544088-.0520592-1.1320219-.0796461-1.3783018-1.1998024-.960273-3.2567978-.9556009-3.2778588zm-.9411393-2.5095076c.3635969-.079349.9615326-.2670431 1.4694414-.3059764.2522116-.0018539.5246677-.0207639.8040953-.0212092.6203318.6443591 1.043478 1.5242443.9524117 2.3730569l-1.2342863.0574732c-.3997116.0305529-.7972727.0671129-1.2026205.026845-.5931902-.7541133-.7509985-1.6727086-.7890416-2.1301895zm-.1251783-.7619c-.0596972-.6399093.4100933-1.2689919.4161005-1.276556l.0510206-.0676322.0106783-.0854301c.0486479-.455627 1.0097361-.8543005 1.4677362-.9759197.0066738-.0034854.0114946-.006155.0180941-.0095663.2588863.1077516.9171867.4324896 1.0604601 1.0157423.1122007.4567394-.1208773.989491-.6816607 1.581346-.3138371-.0100856-.6181068-.0060067-.8996849-.0166855-.5727224-.0256586-1.0426616-.0818706-1.4427442-.1652985z"/><ellipse cx="22.209759" cy="10.3125" rx="1.38467" ry=".9375"/><ellipse cx="20.825089" cy="7.584774" rx=".964327" ry=".637398"/></g></svg>