<?xml version="1.0" encoding="utf-8"?>
<svg height="64" preserveAspectRatio="none" viewBox="0 0 64 64" width="64" xmlns="http://www.w3.org/2000/svg" xmlns:xlink="http://www.w3.org/1999/xlink">
  <linearGradient id="a">
    <stop offset="0" stop-color="#036eb5"/>
    <stop offset="0.6743" stop-color="#1f2228"/>
    <stop offset="1"/>
  </linearGradient>
  <linearGradient id="b" gradientTransform="matrix(-1, 0, 0, -1, 54.119398, 112.320996)" gradientUnits="userSpaceOnUse" x1="27.441809" x2="33.149483" y1="53.032684" y2="58.74036" xlink:href="#a"/>
  <linearGradient id="c" gradientTransform="matrix(-1, 0, 0, -1, 70.694996, 80.803009)" gradientUnits="userSpaceOnUse" x1="36.34457" x2="40.47707" y1="40.626732" y2="39.898064">
    <stop offset="0" stop-color="#036eb5"/>
    <stop offset="0.633" stop-color="#1d2832"/>
    <stop offset="1"/>
  </linearGradient>
  <linearGradient id="d" gradientTransform="matrix(-1, 0, 0, -1, 72.433106, 97.491)" gradientUnits="userSpaceOnUse" x1="35.868515" x2="41.972492" y1="48.21191" y2="49.288204">
    <stop offset="0" stop-color="#036eb5"/>
    <stop offset="0.6055" stop-color="#1e262f"/>
    <stop offset="1"/>
  </linearGradient>
  <linearGradient id="e" gradientTransform="matrix(-1, 0, 0, -1, 61.1714, 107.991998)" gradientUnits="userSpaceOnUse" x1="31.046532" x2="34.833744" y1="52.13905" y2="55.926258" xlink:href="#a"/>
  <linearGradient id="f" gradientTransform="matrix(-1, 0, 0, -1, 68.403401, 102.680992)" gradientUnits="userSpaceOnUse" x1="34.464638" x2="38.778194" y1="49.277775" y2="53.591328" xlink:href="#a"/>
  <linearGradient id="g" gradientTransform="matrix(-1, 0, 0, -1, 77.557398, 48.368999)" gradientUnits="userSpaceOnUse" x1="40.183498" x2="42.449249" y1="23.713898" y2="24.442175" xlink:href="#a"/>
  <linearGradient id="h" gradientTransform="matrix(-1, 0, 0, -1, 83.308402, 33.839)" gradientUnits="userSpaceOnUse" x1="43.651951" x2="45.566486" y1="16.713696" y2="17.192329" xlink:href="#a"/>
  <linearGradient id="i" gradientTransform="matrix(-1, 0, 0, -1, 80.9424, 40.826003)" gradientUnits="userSpaceOnUse" x1="41.509087" x2="44.908501" y1="20.41333" y2="20.41333" xlink:href="#a"/>
  <linearGradient id="j" gradientTransform="matrix(-1, 0, 0, -1, 73.577106, 57.291999)" gradientUnits="userSpaceOnUse" x1="38.146133" x2="40.893543" y1="28.309309" y2="29.192406" xlink:href="#a"/>
  <linearGradient id="k" gradientTransform="matrix(-1, 0, 0, -1, 81.591404, 10.471)" gradientUnits="userSpaceOnUse" x1="38.995964" x2="49.902523" y1="6.331117" y2="3.356601" xlink:href="#a"/>
  <linearGradient id="l" gradientTransform="matrix(-1, 0, 0, -1, 85.784126, 27.702003)" gradientUnits="userSpaceOnUse" x1="44.461407" x2="46.638294" y1="13.475874" y2="14.020095" xlink:href="#a"/>
  <linearGradient id="m" gradientTransform="matrix(-1, 0, 0, -1, 89.038812, 14.351001)" gradientUnits="userSpaceOnUse" x1="45.872665" x2="48.435165" y1="6.585965" y2="7.585965" xlink:href="#a"/>
  <linearGradient id="n" gradientTransform="matrix(-1, 0, 0, -1, 87.051372, 20.730001)" gradientUnits="userSpaceOnUse" x1="44.658257" x2="47.220757" y1="9.697896" y2="10.697896" xlink:href="#a"/>
  <path d="M 45.971 29.912 C 46.491 30.143 47.001 30.432 47.512 30.786 L 47.885 31.043 L 47.856 31.493 C 47.847 31.668 46.596 49.18 23.013 60.92 C 22.758 61.049 20.361 62.215 17.74 62.125 C 17.644 62.143 17.487 62.168 17.283 62.191 C 17.031 62.22 16.708 62.245 16.337 62.245 C 15.544 62.245 14.378 62.126 13.297 61.566 C 12.925 61.461 11.482 60.988 11.181 59.918 C 10.93 59.532 10.398 58.536 10.765 57.504 C 10.783 57.021 10.909 55.78 11.681 54.702 C 11.679 54.677 11.676 54.65 11.673 54.623 C 11.645 54.328 11.64 54.028 11.658 53.73 C 11.669 53.554 11.689 53.368 11.722 53.176 C 11.841 52.482 12.096 51.869 12.479 51.354 C 12.587 51.208 12.707 51.069 12.837 50.938 C 12.85 50.708 12.888 50.412 12.979 50.074 C 13.167 49.389 13.619 48.42 14.704 47.603 C 14.705 47.592 14.707 47.581 14.708 47.569 C 14.816 46.832 15.141 45.46 16.106 44.363 C 16.12 44.244 16.14 44.093 16.171 43.917 C 16.22 43.646 16.292 43.316 16.401 42.957 C 16.658 42.11 17.033 41.37 17.515 40.754 C 17.528 40.614 17.548 40.428 17.58 40.211 C 17.674 39.59 17.822 39.018 18.02 38.511 C 18.269 37.876 18.592 37.361 18.982 36.976 C 18.955 36.053 19.161 33.949 21.402 32.651 C 21.989 31.978 23.66 31.222 28.203 31.209 C 27.96 31.125 27.73 31.046 27.514 30.972 L 27.325 30.907 C 24.385 29.898 23.595 29.628 22.818 28.073 C 22.584 27.604 22.203 27.214 21.794 26.796 C 21.192 26.182 20.517 25.491 20.495 24.532 C 19.751 23.856 19.202 22.763 19.88 21.65 C 20.138 21.226 20.168 20.563 20.111 20.049 C 19.845 19.843 19.563 19.534 19.436 19.096 C 19.333 18.74 19.3 18.183 19.734 17.548 C 20.11 16.996 20.089 15.506 19.864 14.925 C 19.025 14.338 18.073 13.481 18.03 12.593 C 18.009 12.167 18.191 11.766 18.527 11.494 C 18.695 11.356 18.912 11.208 19.173 11.03 C 19.388 10.885 19.912 10.53 20.097 10.343 C 19.924 10.169 19.607 9.879 19.178 9.486 C 18.831 9.169 18.48 8.854 18.133 8.542 C 15.67 6.327 13.542 4.414 13.604 2.851 C 13.625 2.351 13.85 1.91 14.238 1.607 C 14.414 1.472 14.626 1.402 14.869 1.402 C 15.064 1.402 15.247 1.445 15.465 1.496 C 16.231 1.669 16.684 2.243 17.433 3.192 C 17.942 3.838 18.639 4.722 19.705 5.815 C 20.232 6.355 20.773 6.79 21 6.952 C 21.113 6.953 21.285 6.957 21.491 6.963 C 21.855 6.972 22.328 6.982 22.763 6.982 C 23.272 6.982 23.53 6.967 23.657 6.952 C 24.014 6.373 24.59 5.57 25.632 5.57 L 25.635 5.57 L 25.795 5.584 C 25.81 5.587 25.88 5.597 25.983 5.597 C 26.311 5.597 27.407 5.346 27.845 4.966 C 28.725 4.209 29.453 3.854 30.199 3.902 C 30.529 3.676 31.074 3.398 31.766 3.398 C 32.647 3.398 33.479 3.826 34.24 4.67 C 34.587 5.056 34.78 5.457 34.935 5.779 C 35.037 5.992 35.126 6.176 35.233 6.31 C 35.553 6.707 35.733 7.015 35.865 7.24 C 35.908 7.314 35.96 7.402 35.995 7.453 C 36.605 7.415 38.672 7.584 40.088 10.954 C 40.657 12.307 41.113 12.826 41.695 13.488 C 42.46 14.359 43.327 15.347 44.612 18.156 C 44.924 18.839 45.226 19.486 45.51 20.098 C 47.46 24.281 48.645 26.823 47.282 28.244 C 47.028 28.638 46.53 29.36 45.971 29.912 L 45.971 29.912 Z M 44.604 20.52 C 44.317 19.906 44.016 19.257 43.702 18.572 C 42.479 15.896 41.663 14.968 40.939 14.145 C 40.353 13.476 39.799 12.845 39.166 11.342 C 38.069 8.731 36.675 8.449 36.126 8.449 C 36.078 8.449 36.042 8.452 35.94 8.459 C 35.41 8.444 35.203 8.089 35.002 7.745 C 34.879 7.536 34.728 7.275 34.454 6.937 C 34.274 6.714 34.152 6.459 34.033 6.212 C 33.893 5.92 33.748 5.618 33.497 5.339 C 32.935 4.715 32.352 4.398 31.766 4.398 C 31.249 4.398 30.851 4.653 30.66 4.805 L 30.499 4.933 L 30.295 4.91 C 29.768 4.852 29.231 5.092 28.499 5.723 C 27.846 6.288 26.495 6.597 25.983 6.597 C 25.797 6.597 25.67 6.577 25.677 6.576 L 25.595 6.568 C 25.095 6.568 24.778 7.028 24.416 7.631 C 24.24 7.92 23.947 7.982 22.763 7.982 C 22.319 7.982 21.837 7.971 21.467 7.962 C 21.243 7.957 21.061 7.952 20.997 7.937 L 20.802 7.993 L 20.622 7.896 C 20.374 7.765 19.633 7.174 18.989 6.513 C 17.886 5.382 17.171 4.475 16.648 3.812 C 15.967 2.948 15.648 2.562 15.198 2.46 C 15.07 2.431 14.949 2.402 14.869 2.402 L 14.851 2.397 C 14.693 2.521 14.612 2.682 14.604 2.891 C 14.561 3.984 16.717 5.924 18.802 7.799 C 19.15 8.112 19.503 8.429 19.912 8.803 C 20.388 9.238 20.761 9.582 20.916 9.752 C 21.095 9.952 21.173 10.165 21.147 10.391 C 21.084 10.906 20.496 11.343 19.706 11.877 C 19.501 12.017 19.308 12.146 19.158 12.27 C 19.067 12.343 19.024 12.436 19.029 12.544 C 19.047 12.919 19.655 13.575 20.541 14.177 L 20.642 14.246 L 20.7 14.354 C 21.104 15.1 21.205 17.165 20.561 18.111 C 20.389 18.362 20.333 18.6 20.396 18.816 C 20.469 19.064 20.678 19.238 20.842 19.341 L 21.032 19.46 L 21.069 19.682 C 21.129 20.037 21.282 21.268 20.734 22.171 C 20.25 22.964 20.976 23.652 21.31 23.911 L 21.53 24.082 L 21.5 24.359 C 21.434 24.998 21.956 25.531 22.515 26.103 C 22.954 26.552 23.409 27.017 23.713 27.626 C 24.307 28.814 24.752 28.967 27.65 29.961 L 27.84 30.026 C 28.497 30.252 29.271 30.52 30.19 30.849 C 30.633 31.007 31.155 31.139 31.787 31.251 L 36.297 32.057 L 31.72 32.243 C 31.438 32.255 31.155 32.262 30.865 32.262 C 30.659 32.262 30.45 32.258 30.239 32.25 C 23.381 31.975 22.228 33.208 22.132 33.337 L 21.975 33.476 C 19.934 34.613 19.942 36.568 19.994 37.14 L 20.017 37.401 L 19.816 37.569 C 19.468 37.858 19.177 38.298 18.951 38.875 C 18.783 39.307 18.65 39.82 18.569 40.36 C 18.527 40.637 18.509 40.857 18.501 40.979 L 18.491 41.141 L 18.387 41.266 C 17.94 41.804 17.594 42.47 17.358 43.248 C 17.262 43.564 17.198 43.854 17.156 44.092 C 17.114 44.327 17.094 44.512 17.084 44.621 L 17.069 44.795 L 16.95 44.922 C 16.083 45.838 15.793 47.065 15.698 47.715 L 15.646 48.162 L 15.457 48.292 C 14.677 48.831 14.168 49.52 13.944 50.337 C 13.844 50.707 13.831 51.008 13.832 51.154 L 13.833 51.379 L 13.666 51.53 C 13.519 51.662 13.391 51.803 13.282 51.95 C 12.993 52.338 12.8 52.808 12.708 53.345 C 12.681 53.501 12.665 53.652 12.656 53.793 C 12.638 54.081 12.65 54.335 12.668 54.527 C 12.678 54.622 12.688 54.701 12.698 54.762 L 12.732 54.979 L 12.595 55.151 C 11.823 56.118 11.766 57.369 11.762 57.609 L 11.726 57.79 C 11.442 58.488 11.951 59.276 12.056 59.428 L 12.136 59.614 C 12.243 60.141 13.298 60.543 13.582 60.609 L 13.718 60.658 C 14.631 61.143 15.646 61.245 16.337 61.245 C 16.664 61.245 16.948 61.223 17.169 61.198 C 17.385 61.173 17.538 61.146 17.604 61.133 L 17.665 61.121 L 17.725 61.124 C 20.153 61.222 22.469 60.075 22.565 60.026 C 44.527 49.092 46.694 33.032 46.849 31.543 C 46.177 31.09 45.509 30.762 44.812 30.542 L 43.645 30.175 L 44.735 29.62 C 45.228 29.369 45.96 28.455 46.469 27.661 L 46.538 27.575 C 47.464 26.657 46.326 24.216 44.604 20.52 L 44.604 20.52 Z" fill="#868686" style="transform-box: fill-box; transform-origin: 50% 50%;" transform="matrix(-1, 0, 0, -1, -0.000002, -0.000001)"/>
  <path d="M 16.569 38.88 C 17.057 39.327 17.444 39.68 17.596 39.849 C 17.718 39.984 17.708 40.062 17.705 40.091 C 17.664 40.425 16.964 40.898 16.501 41.211 C 16.274 41.365 16.061 41.51 15.897 41.644 C 15.682 41.818 15.57 42.062 15.583 42.331 C 15.622 43.128 16.828 44.023 17.314 44.353 C 17.655 44.985 17.723 46.826 17.201 47.592 C 16.877 48.067 16.897 48.467 16.97 48.719 C 17.089 49.129 17.411 49.391 17.63 49.527 C 17.713 50.02 17.769 51.001 17.361 51.673 C 16.748 52.677 17.449 53.597 18.057 54.069 C 17.965 54.943 18.595 55.586 19.205 56.209 C 19.62 56.633 20.049 57.071 20.319 57.612 C 21.004 58.983 21.613 59.192 24.541 60.196 C 25.235 60.436 26.069 60.721 27.075 61.082 C 28.305 61.522 29.82 61.745 31.575 61.745 C 36.367 61.745 41.441 60.117 42.006 59.833 C 42.796 59.438 43.741 58.009 43.943 57.693 C 45.119 56.528 43.981 54.086 42.11 50.071 C 41.825 49.459 41.524 48.811 41.211 48.127 C 39.956 45.382 39.114 44.424 38.371 43.579 C 37.787 42.914 37.282 42.34 36.681 40.911 C 35.468 38.024 33.828 37.712 33.179 37.712 C 33.091 37.712 33.027 37.719 33.008 37.722 C 32.582 37.71 32.623 37.288 31.897 36.386 C 31.562 35.969 31.444 35.348 30.922 34.767 C 30.26 34.033 29.553 33.661 28.82 33.661 C 28.155 33.661 27.653 33.976 27.403 34.176 C 26.753 34.106 26.106 34.348 25.225 35.108 C 24.665 35.593 23.431 35.86 23.037 35.86 C 22.885 35.86 22.784 35.843 22.77 35.841 L 22.649 35.831 C 21.826 35.831 21.372 36.585 21.041 37.135 C 20.916 37.342 18.012 37.189 17.912 37.219 C 17.729 37.122 17.031 36.573 16.401 35.927 C 13.873 33.333 13.448 31.982 12.409 31.746 C 12.103 31.676 11.814 31.597 11.597 31.766 C 11.324 31.978 11.172 32.278 11.158 32.634 C 11.097 34.163 13.92 36.462 16.569 38.88 L 16.569 38.88 Z" fill="#ffff80" style="transform-box: fill-box; transform-origin: 50% 50%;" transform="matrix(-1, 0, 0, -1, -0.000005, 0.000003)"/>
  <path d="M 21.855 55.355 L 21.861 55.363 C 22.493 56.398 23.152 57.53 23.818 58.726 L 23.844 58.774 L 23.897 58.788 C 24.098 58.845 24.818 59.031 25.62 59.031 C 26.608 59.031 27.321 58.752 27.741 58.201 L 27.814 58.105 L 27.725 58.024 C 27.049 57.409 26.467 57.341 26.238 57.341 C 26.238 57.341 26.237 57.341 26.237 57.341 L 26.095 57.351 C 25.536 57.351 25.337 57.062 24.941 56.485 C 24.792 56.268 24.623 56.021 24.402 55.747 C 24.272 55.585 24.174 55.378 24.071 55.159 C 23.924 54.849 23.757 54.497 23.453 54.158 C 22.934 53.582 22.407 53.29 21.886 53.29 C 21.435 53.29 21.089 53.513 20.923 53.646 L 20.83 53.72 L 20.895 53.82 C 21.178 54.256 21.483 54.745 21.855 55.355 L 21.855 55.355 Z" fill="url(#b)" style="transform-box: fill-box; transform-origin: 50% 50%;" transform="matrix(-1, 0, 0, -1, -0.000001, -0.000002)"/>
  <path d="M 33.765 43.278 C 33.658 43.199 33.557 43.095 33.452 42.952 L 33.338 42.787 C 33.017 42.223 32.949 41.434 32.891 40.738 C 32.831 40.041 32.771 39.32 32.442 39.04 L 32.417 39.008 L 32.372 38.974 C 32.35 38.964 32.328 38.954 32.306 38.943 L 32.256 38.728 C 32.145 38.26 32.517 37.552 32.846 36.923 C 33.261 36.128 33.54 35.545 33.337 35.29 C 33.269 35.205 33.219 35.103 33.181 34.966 L 33.167 34.912 L 30.534 33.481 L 30.585 33.752 C 30.779 34.775 29.92 36.127 29.746 36.388 C 29.625 36.569 29.584 36.748 29.625 36.919 C 29.707 37.266 30.098 37.488 30.11 37.496 C 30.239 37.574 30.337 37.723 30.401 37.936 L 30.416 37.985 L 30.435 37.996 L 30.466 38.24 C 30.547 38.878 30.396 39.694 30.243 40.199 C 29.991 41.02 30.628 41.771 30.759 41.914 L 30.796 41.942 C 31.024 42.059 31.24 42.215 31.455 42.417 L 31.694 42.668 C 32.713 43.829 33.12 45.687 33.248 46.432 L 33.261 46.507 L 33.333 46.533 C 33.643 46.644 33.99 46.764 34.415 46.909 C 34.708 47.009 35.032 47.121 35.377 47.241 L 35.61 47.322 L 35.547 47.083 C 35.298 46.148 34.627 43.907 33.765 43.278 L 33.765 43.278 Z" fill="url(#c)" style="transform-box: fill-box; transform-origin: 50% 50%;" transform="matrix(-1, 0, 0, -1, -0.000002, 0.000005)"/>
  <path d="M 30.957 49.071 C 31.869 49.649 33.256 50.52 34.688 51.386 L 34.866 51.495 L 34.885 51.287 C 34.899 51.146 34.924 51.03 34.965 50.92 C 35.168 50.371 35.69 49.854 36.329 49.572 L 36.528 49.484 L 36.357 49.35 C 34.934 48.226 33.603 47.151 32.402 46.153 L 32.211 45.996 L 32.188 46.243 C 32.184 46.27 32.183 46.297 32.183 46.322 C 32.182 46.352 32.183 46.381 32.176 46.411 C 32.06 46.938 31.66 47.401 30.989 47.788 C 30.626 47.995 30.438 48.198 30.43 48.391 C 30.422 48.581 30.578 48.783 30.957 49.071 L 30.957 49.071 Z" fill="url(#d)" style="transform-box: fill-box; transform-origin: 50% 50%;" transform="matrix(-1, 0, 0, -1, -0.000002, 0.000001)"/>
  <path d="M 27.73 56.744 L 27.777 56.802 L 27.85 56.789 C 28.331 56.716 30.728 56.258 30.729 54.571 L 30.729 54.386 L 30.711 54.356 C 30.096 53.318 29.476 52.311 28.87 51.361 L 28.76 51.19 L 28.65 51.36 C 27.802 52.66 25.936 53.212 25.173 53.388 L 24.967 53.436 L 25.102 53.599 C 25.875 54.54 26.818 55.661 27.73 56.744 Z" fill="url(#e)" style="transform-box: fill-box; transform-origin: 50% 50%;" transform="matrix(-1, 0, 0, -1, -0.000001, 0.000004)"/>
  <path d="M 28.113 50.847 C 28.116 50.867 28.119 50.889 28.125 50.907 L 28.136 50.948 L 28.169 50.976 C 29.28 51.888 30.939 53.243 32.542 54.51 L 32.703 54.639 L 32.75 54.438 C 32.888 53.841 33.355 52.374 34.729 51.635 L 34.87 51.559 L 34.768 51.437 C 33.699 50.136 32.715 48.972 32.078 48.224 L 31.924 48.042 L 31.854 48.27 C 31.259 50.181 29.115 50.566 28.221 50.642 L 28.058 50.657 L 28.107 50.813 C 28.11 50.823 28.111 50.835 28.113 50.847 L 28.113 50.847 Z" fill="url(#f)" style="transform-box: fill-box; transform-origin: 50% 50%;" transform="matrix(-1, 0, 0, -1, -0.000001, -0.000003)"/>
  <path d="M 11.158 32.634 C 11.172 32.278 11.324 31.978 11.597 31.766 C 11.814 31.597 12.104 31.676 12.409 31.746 C 13.448 31.982 13.873 33.333 16.401 35.927 C 17.031 36.573 17.729 37.122 17.912 37.219 C 18.012 37.189 20.916 37.342 21.041 37.135 C 21.372 36.585 21.826 35.831 22.649 35.831 L 22.77 35.841 C 22.784 35.843 22.885 35.86 23.037 35.86 C 23.431 35.86 24.665 35.593 25.225 35.108 C 26.107 34.348 26.753 34.106 27.403 34.176 C 27.653 33.976 28.155 33.661 28.82 33.661 C 29.553 33.661 30.26 34.033 30.922 34.767 C 31.445 35.348 31.562 35.969 31.897 36.386 C 32.623 37.288 32.582 37.71 33.008 37.722 C 33.027 37.719 33.091 37.712 33.179 37.712 C 33.828 37.712 35.468 38.024 36.681 40.911 C 37.282 42.34 37.787 42.914 38.371 43.579 C 39.114 44.424 39.956 45.382 41.211 48.127 C 41.524 48.811 41.825 49.459 42.11 50.071 C 43.981 54.086 45.119 56.528 43.943 57.693 C 43.741 58.009 42.796 59.438 42.006 59.833 C 41.441 60.117 36.367 61.745 31.575 61.745 C 29.82 61.745 28.305 61.522 27.075 61.082 C 26.069 60.721 25.235 60.436 24.541 60.196 C 21.613 59.192 21.004 58.983 20.319 57.612 C 20.049 57.071 19.62 56.633 19.205 56.209 C 18.595 55.586 17.965 54.943 18.057 54.069 C 17.449 53.597 16.748 52.677 17.361 51.673 C 17.769 51.001 17.713 50.02 17.63 49.527 C 17.411 49.391 17.089 49.129 16.97 48.719 C 16.897 48.467 16.877 48.067 17.201 47.592 C 17.723 46.826 17.655 44.985 17.314 44.353 C 16.828 44.023 15.622 43.128 15.583 42.331 C 15.57 42.062 15.682 41.818 15.897 41.644 C 16.061 41.51 16.274 41.365 16.501 41.211 C 16.964 40.897 17.664 40.425 17.705 40.091 C 17.708 40.062 17.718 39.984 17.596 39.849 C 17.444 39.68 17.057 39.327 16.569 38.88 C 13.92 36.462 11.097 34.163 11.158 32.634 L 11.158 32.634 Z M 18.667 44.256 C 18.697 43.933 18.937 43.64 19.413 43.366 C 19.986 43.036 20.321 42.659 20.414 42.246 C 20.459 42.043 20.433 41.865 20.395 41.721 C 19.775 41.203 19.657 41.147 19.051 40.622 C 19.049 40.635 18.55 40.183 18.549 40.194 C 18.461 40.912 18.173 41.912 17.478 42.383 C 17.274 42.521 17.082 42.651 16.933 42.771 C 16.923 42.989 17.117 43.205 17.862 43.697 L 17.982 43.816 C 17.982 43.816 18.244 43.986 18.667 44.256 L 18.667 44.256 Z M 29.611 48.227 L 29.648 48.227 L 29.722 48.228 L 30.02 48.226 C 30.454 48.284 30.915 48.369 31.281 48.479 C 31.545 48.545 31.801 48.628 32.058 48.707 C 31.764 47.824 29.749 45.22 27.654 42.659 C 26.062 43.445 25.739 45.46 25.736 45.481 L 25.733 45.5 C 27.312 46.742 28.713 47.797 29.481 48.265 L 29.504 48.253 L 29.529 48.242 C 29.662 48.211 29.576 48.234 29.611 48.227 L 29.611 48.227 Z M 20.214 49.068 C 20.112 49.22 20.079 49.361 20.112 49.496 C 20.17 49.741 20.439 49.936 20.537 49.991 C 20.706 50.095 20.817 50.278 20.886 50.505 C 21.264 50.728 21.619 50.929 21.892 51.067 C 22.08 51.162 22.277 51.262 22.487 51.365 C 22.367 50.857 22.728 50.157 23.087 49.473 C 23.37 48.931 23.76 48.187 23.594 47.98 C 23.505 47.869 23.451 47.742 23.414 47.607 C 22.622 47.177 21.821 46.741 21.073 46.335 C 21.268 47.361 20.482 48.666 20.214 49.068 L 20.214 49.068 Z M 21.214 54.433 C 21.468 54.563 21.696 54.734 21.904 54.93 C 22.431 55.102 22.985 55.279 23.584 55.459 C 23.249 54.872 23.18 54.079 23.119 53.357 C 23.062 52.686 23.003 51.992 22.726 51.761 C 22.705 51.742 22.694 51.719 22.675 51.7 C 22.297 51.523 21.917 51.339 21.538 51.138 C 21.332 51.029 21.138 50.927 20.955 50.831 C 21.035 51.464 20.897 52.285 20.727 52.844 C 20.499 53.591 21.082 54.289 21.214 54.433 L 21.214 54.433 Z M 23.641 53.313 C 23.714 54.178 23.797 55.158 24.356 55.567 C 24.414 55.609 24.469 55.663 24.525 55.716 C 25.21 55.901 25.909 56.09 26.616 56.282 C 27.121 56.423 27.641 56.514 28.145 56.631 C 28.648 56.751 29.151 56.83 29.637 56.909 C 30.607 57.079 31.522 57.172 32.305 57.218 C 33.235 57.275 33.887 57.254 34.273 57.227 L 33.878 56.939 L 33.258 56.34 C 32.844 55.943 32.452 55.577 32.039 55.206 L 30.724 54.217 L 30.646 54.159 L 30.644 54.154 C 29.829 54.025 26.776 53.475 23.45 52.047 C 23.556 52.415 23.602 52.852 23.641 53.313 L 23.641 53.313 Z M 30.441 53.512 C 30.281 53.034 30.1 52.561 29.876 52.116 C 29.704 51.82 29.553 51.504 29.338 51.248 C 29.153 50.96 28.904 50.757 28.677 50.534 L 28.546 50.404 L 28.545 50.395 C 28.45 50.343 26.428 49.245 24.141 48.003 C 24.202 48.466 23.887 49.076 23.551 49.716 C 23.236 50.318 22.804 51.142 23.062 51.359 C 23.188 51.464 23.278 51.606 23.351 51.765 C 24.8 52.396 26.874 53.073 30.441 53.512 Z M 29.049 48.578 C 28.376 48.07 27.033 47.049 25.38 45.751 C 24.683 45.945 24.131 46.5 23.956 46.975 C 23.898 47.133 23.86 47.344 23.937 47.53 C 25.867 48.686 27.727 49.736 28.563 50.02 C 28.591 49.656 28.647 49.306 28.807 48.943 C 28.864 48.821 28.947 48.695 29.049 48.578 Z M 33.016 49.024 C 33.576 49.213 34.136 49.403 34.686 49.617 C 35.04 49.759 35.402 49.908 35.759 50.067 C 34.284 46.61 32.471 43.244 30.901 40.556 C 30.514 41.886 28.868 42.384 28.1 42.54 C 28.133 42.579 28.166 42.619 28.199 42.658 C 30.499 45.389 32.619 48.446 33.016 49.024 Z M 30.48 39.841 C 29.786 38.673 29.155 37.656 28.641 36.85 C 27.801 38.137 26.033 38.715 25.084 38.935 C 25.849 39.865 26.771 40.962 27.712 42.079 C 28.128 42.015 30.479 41.585 30.48 39.989 L 30.48 39.841 Z M 24.629 39.037 C 24.01 41.025 21.801 41.423 20.883 41.502 C 20.892 41.531 20.894 41.571 20.902 41.603 C 22.245 42.706 23.812 43.981 25.272 45.136 C 25.414 44.522 25.908 43.006 27.317 42.248 C 26.368 41.095 25.423 39.971 24.629 39.037 L 24.629 39.037 Z M 19.675 43.821 C 19.363 44 19.188 44.176 19.182 44.315 C 19.176 44.481 19.391 44.684 19.649 44.881 C 20.661 45.521 22.007 46.365 23.377 47.194 C 23.389 47.064 23.413 46.932 23.464 46.794 C 23.687 46.188 24.252 45.656 24.897 45.372 C 23.676 44.408 22.315 43.315 20.938 42.175 C 20.932 42.237 20.94 42.293 20.925 42.36 C 20.801 42.923 20.38 43.414 19.675 43.821 Z M 18.605 49.087 L 18.801 49.172 C 18.801 49.172 18.948 49.315 19.664 49.761 C 19.644 49.714 19.615 49.675 19.603 49.624 C 19.534 49.345 19.594 49.053 19.778 48.777 C 20.279 48.025 20.776 46.915 20.524 46.263 C 20.46 46.097 20.143 45.872 19.842 45.665 C 19.256 45.346 19.165 45.293 18.772 45.078 C 18.966 46.133 18.858 47.531 18.334 48.3 C 18.224 48.462 18.184 48.6 18.216 48.711 C 18.274 48.908 18.542 49.061 18.605 49.087 Z M 19.151 53.754 L 19.258 53.82 C 19.374 53.856 19.534 53.927 19.718 54.077 C 19.899 54.252 19.73 54.201 20.042 54.28 C 20.204 54.338 20.402 54.409 20.584 54.477 C 20.319 54.09 20 53.431 20.225 52.69 C 20.532 51.685 20.493 50.749 20.321 50.502 C 19.427 50.04 19.255 50.001 18.897 49.842 C 18.971 50.436 19.007 51.499 18.488 52.352 C 18.055 53.062 19.106 53.726 19.151 53.754 L 19.151 53.754 Z M 23.161 58.808 C 22.933 57.687 22.331 55.566 20.94 54.882 L 20.871 54.833 C 20.87 54.832 20.858 54.819 20.853 54.815 C 20.529 54.723 20.221 54.624 19.953 54.545 C 19.656 54.419 19.468 54.443 19.213 54.471 C 19.15 54.471 19.104 54.461 19.051 54.455 C 19.143 54.807 19.453 55.152 19.924 55.633 C 20.364 56.081 20.861 56.589 21.191 57.249 C 21.582 58.032 21.762 58.284 23.161 58.808 Z M 25.779 59.724 C 25.453 58.5 24.803 56.544 24.047 55.991 C 23.911 55.892 23.803 55.769 23.706 55.637 C 23.164 55.481 22.642 55.331 22.151 55.189 C 23.173 56.354 23.592 58.176 23.736 59.017 C 24.051 59.129 24.406 59.252 24.817 59.393 C 25.11 59.493 25.434 59.605 25.779 59.724 Z M 40.885 59.341 C 41.212 59.222 41.425 59.1 41.571 58.98 C 32.116 59.929 29.054 58.785 29.054 58.785 C 35.054 59.485 40.039 58.605 41.383 58.225 C 39.673 58.148 37.964 58.054 36.255 57.845 L 35.417 57.717 C 35.294 57.684 35.17 57.654 35.046 57.619 C 34.773 57.649 34.443 57.678 34.208 57.676 C 33.738 57.677 33.071 57.645 32.278 57.567 C 31.485 57.496 30.563 57.375 29.59 57.175 C 29.103 57.081 28.599 56.987 28.096 56.851 C 27.591 56.72 27.076 56.607 26.566 56.459 C 25.945 56.281 25.329 56.104 24.723 55.929 C 25.577 56.961 26.17 59.103 26.375 59.932 C 26.686 60.041 27.01 60.155 27.362 60.281 C 28.5 60.688 29.918 60.894 31.575 60.894 C 35.277 60.894 39.241 59.867 40.885 59.341 L 40.885 59.341 Z M 42.035 54.951 C 41.778 54.655 41.775 54.594 41.476 54.337 L 40.617 53.535 C 40.008 53.039 39.388 52.56 38.727 52.133 C 38.069 51.704 37.388 51.313 36.691 50.945 C 35.997 50.552 35.288 50.276 34.539 50.014 C 33.795 49.758 33.044 49.518 32.287 49.312 C 31.908 49.207 31.53 49.106 31.149 49.026 C 30.752 48.927 30.428 48.888 30.081 48.832 L 29.785 48.846 L 29.711 48.85 L 29.711 48.85 C 29.691 48.868 29.67 48.884 29.649 48.897 C 29.559 48.946 29.485 49.069 29.431 49.215 C 29.334 49.469 29.303 49.798 29.304 50.102 C 29.53 50.342 29.752 50.582 29.905 50.857 C 30.131 51.171 30.271 51.519 30.436 51.854 C 30.715 52.515 30.918 53.185 31.067 53.883 L 32.33 54.87 C 32.739 55.251 33.156 55.655 33.54 56.038 L 34.109 56.616 L 34.775 57.123 C 34.971 57.224 34.932 57.218 35.179 57.288 L 35.993 57.429 C 37.686 57.669 38.289 57.442 40.005 57.552 C 40.065 57.553 40.816 57.552 41.379 57.408 C 41.551 57.177 42.525 57.085 42.642 56.901 L 41.379 55.77 C 41.391 55.76 42.733 56.205 42.733 56.205 L 42.365 55.344 C 42.365 55.344 42.145 55.082 42.035 54.951 L 42.035 54.951 Z M 34.922 39.586 C 33.967 40.751 32.127 40.56 31.209 40.372 C 33.698 44.901 35.745 49.268 36.221 50.298 C 36.437 50.404 36.659 50.504 36.864 50.623 C 37.561 51.004 38.249 51.411 38.91 51.856 C 38.964 51.892 39.014 51.932 39.067 51.968 L 36.683 46.088 C 37.557 46.76 39.184 50.495 39.643 51.216 C 39.959 51.713 40.859 52.612 41.755 53.479 C 41.542 52.793 41.067 51.294 40.199 48.691 C 39.759 47.37 39.269 46.299 38.816 45.448 C 38.419 44.88 38.084 44.541 37.732 44.141 C 37.125 43.45 36.552 42.797 35.897 41.241 C 35.584 40.496 35.249 39.975 34.922 39.586 L 34.922 39.586 Z M 27.939 34.838 C 28.26 35.334 28.581 35.851 28.902 36.376 L 28.91 36.379 C 28.909 36.381 28.908 36.383 28.907 36.385 C 29.573 37.476 30.232 38.612 30.867 39.752 C 31.225 39.853 33.617 40.464 34.571 39.211 C 33.947 38.643 33.4 38.562 33.179 38.562 L 33.029 38.572 C 32.168 38.572 32.041 37.922 31.234 36.919 C 30.907 36.512 30.8 35.903 30.29 35.336 C 29.797 34.788 29.302 34.511 28.82 34.511 C 28.404 34.511 28.087 34.72 27.939 34.838 L 27.939 34.838 Z M 23.608 37.063 C 23.824 37.408 24.058 37.674 24.712 38.479 C 25.521 38.313 27.613 37.754 28.331 36.366 C 27.935 35.753 27.901 35.677 27.73 35.424 L 27.459 35.045 C 27.109 34.98 27.116 35.209 26.05 36.131 C 25.382 36.707 24.228 36.986 23.608 37.063 L 23.608 37.063 Z M 17.081 38.353 C 17.251 38.503 17.412 38.646 17.549 38.771 C 18.075 39.251 18.048 39.081 18.229 39.28 C 18.31 39.37 18.371 39.46 18.419 39.547 C 18.871 39.924 19.473 40.424 20.165 40.995 L 20.485 40.997 L 20.486 40.997 C 20.541 40.997 23.605 40.975 24.171 38.733 L 24.214 38.562 L 24.223 38.561 C 23.261 37.434 22.969 37.25 22.969 37.25 C 22.702 37.258 22.455 37.628 22.14 38.15 C 21.844 38.644 18.877 38.594 18.33 38.594 C 18.245 38.594 17.577 38.463 17.081 38.353 Z" fill="#231815" style="transform-box: fill-box; transform-origin: 50% 50%;" transform="matrix(-1, 0, 0, -1, -0.000001, 0.000003)"/>
  <path d="M 11.663 31.893 C 11.851 32.823 13.383 33.256 13.501 33.279 C 14.503 33.813 15.606 33.925 16.354 33.925 C 17.051 33.925 17.573 33.833 17.72 33.803 C 20.302 33.92 22.711 32.702 22.806 32.654 C 46.083 21.065 47.365 3.818 47.375 3.644 L 47.385 3.474 L 47.244 3.377 C 45.792 2.371 44.355 1.902 42.724 1.902 C 41.182 1.902 39.62 2.329 37.966 2.781 C 35.795 3.374 33.313 4.053 30.276 3.93 C 23.485 3.66 22.053 4.808 21.748 5.219 C 19.444 6.504 19.454 8.705 19.513 9.365 C 18.269 10.402 18.053 12.607 18.019 13.127 C 16.873 14.507 16.645 16.284 16.604 16.758 C 15.491 17.935 15.243 19.554 15.19 20.061 C 13.482 21.241 13.345 22.823 13.349 23.338 C 11.961 24.584 12.135 26.472 12.222 27.019 C 11.356 28.103 11.284 29.458 11.28 29.782 C 10.907 30.699 11.485 31.637 11.663 31.893 L 11.663 31.893 Z" fill="#ffff80" style="transform-box: fill-box; transform-origin: 50% 50%;" transform="matrix(-1, 0, 0, -1, 0.000002, -0.000002)"/>
  <path d="M 36.194 26.057 L 36.234 26.052 L 36.259 26.038 C 36.353 25.983 36.451 25.926 36.534 25.854 C 36.628 25.79 36.704 25.707 36.777 25.625 C 36.816 25.583 36.854 25.541 36.903 25.494 C 36.973 25.412 37.035 25.321 37.094 25.234 C 37.128 25.184 37.163 25.133 37.198 25.084 C 37.268 24.99 37.315 24.885 37.361 24.784 C 37.384 24.73 37.409 24.676 37.434 24.628 C 37.551 24.428 37.61 24.205 37.667 23.99 C 37.697 23.874 37.727 23.758 37.771 23.63 C 37.808 23.415 37.836 23.197 37.864 22.979 C 37.877 22.872 37.891 22.765 37.906 22.658 L 37.92 22.559 L 37.82 22.545 C 37.135 22.457 36.454 22.381 35.847 22.329 L 35.588 22.312 L 35.583 22.413 C 35.54 23.157 35.415 23.794 35.2 24.361 C 35.058 24.732 34.893 25.043 34.699 25.313 C 34.609 25.434 34.488 25.589 34.342 25.728 L 34.394 25.782 L 34.393 25.789 L 34.322 25.746 L 34.162 25.895 L 34.379 25.919 C 34.928 25.979 35.539 26.026 36.194 26.057 L 36.194 26.057 Z" fill="url(#g)" style="transform-box: fill-box; transform-origin: 50% 50%;" transform="matrix(-1, 0, 0, -1, -0.000002, 0.000001)"/>
  <path d="M 39.309 18.574 C 39.385 18.519 39.474 18.451 39.55 18.373 C 39.622 18.308 39.68 18.232 39.737 18.16 C 39.768 18.12 39.798 18.081 39.839 18.033 C 39.973 17.833 40.142 17.563 40.255 17.264 C 40.347 17.087 40.397 16.896 40.444 16.71 C 40.47 16.61 40.496 16.51 40.532 16.399 C 40.566 16.212 40.592 16.023 40.62 15.833 L 40.669 15.491 L 40.569 15.478 C 39.786 15.372 39.055 15.295 38.398 15.25 L 38.301 15.243 L 38.274 15.532 C 38.257 15.71 38.242 15.888 38.22 16.053 C 38.192 16.16 38.17 16.269 38.149 16.378 C 38.11 16.577 38.073 16.765 37.994 16.953 C 37.915 17.209 37.794 17.478 37.622 17.789 C 37.59 17.833 37.56 17.879 37.53 17.925 C 37.472 18.014 37.417 18.098 37.349 18.175 L 37.164 18.39 L 39.279 18.596 L 39.309 18.574 Z" fill="url(#h)" style="transform-box: fill-box; transform-origin: 50% 50%;" transform="matrix(-1, 0, 0, -1, 0.000001, 0.000001)"/>
  <path d="M 37.847 22.329 C 37.959 22.342 38.078 22.346 38.196 22.35 C 38.255 22.351 38.314 22.353 38.374 22.356 L 38.417 22.358 L 38.448 22.329 C 38.611 22.172 38.775 21.952 38.936 21.667 C 39.089 21.347 39.198 21.036 39.267 20.722 C 39.326 20.512 39.351 20.293 39.375 20.081 C 39.389 19.962 39.403 19.844 39.423 19.712 L 39.433 18.675 L 39.345 18.664 C 38.561 18.562 37.959 18.501 37.452 18.474 L 37.347 18.468 L 37.346 18.573 C 37.336 19.32 37.253 19.923 37.083 20.472 C 36.967 20.846 36.827 21.158 36.655 21.425 C 36.528 21.616 36.376 21.788 36.193 21.952 L 36.034 22.094 L 36.245 22.125 C 36.763 22.205 37.276 22.279 37.847 22.329 L 37.847 22.329 Z" fill="url(#i)" style="transform-box: fill-box; transform-origin: 50% 50%;" transform="matrix(-1, 0, 0, -1, 0.000002, 0.000001)"/>
  <path d="M 34.049 31.371 L 34.083 31.375 L 34.114 31.356 C 34.311 31.232 34.482 31.1 34.613 30.97 C 34.766 30.851 34.883 30.701 34.996 30.555 C 35.045 30.493 35.093 30.431 35.145 30.371 C 35.262 30.234 35.343 30.075 35.422 29.922 C 35.464 29.841 35.506 29.759 35.55 29.687 C 35.659 29.528 35.709 29.35 35.759 29.178 C 35.783 29.094 35.807 29.009 35.838 28.926 C 35.926 28.681 36.008 28.415 36.018 28.132 L 36.107 27.347 C 36.125 27.247 36.117 27.151 36.107 27.059 C 36.103 27.015 36.098 26.971 36.097 26.921 L 36.028 25.917 L 35.928 25.923 C 35.013 25.985 34.263 26.095 33.701 26.248 L 33.617 26.271 L 33.627 26.357 C 33.775 27.493 33.74 28.349 33.511 29.132 C 33.362 29.663 33.128 30.111 32.82 30.462 C 32.675 30.619 32.481 30.817 32.239 30.967 L 31.984 31.131 L 32.258 31.163 C 32.808 31.229 33.407 31.299 34.049 31.371 L 34.049 31.371 Z" fill="url(#j)" style="transform-box: fill-box; transform-origin: 50% 50%;" transform="matrix(-1, 0, 0, -1, -0.000002, 0)"/>
  <path d="M 32.397 7.584 C 33.083 7.946 33.328 8.061 33.928 8.061 C 34.688 8.061 35.225 7.942 35.227 7.942 L 35.252 7.936 L 35.28 7.938 C 37.775 8.047 40.131 6.854 40.152 6.844 C 41.282 6.281 42.415 5.667 43.717 4.912 L 43.888 4.813 L 43.708 4.734 C 43.124 4.477 42.733 4.125 42.545 3.688 C 42.406 3.36 42.378 2.998 42.463 2.611 L 42.507 2.41 L 42.255 2.532 C 42.188 2.564 42.12 2.597 42.057 2.628 C 41.91 2.687 41.756 2.75 41.598 2.814 C 41.036 3.044 40.398 3.305 39.703 3.481 L 38.336 3.856 C 38.042 3.938 37.728 3.989 37.425 4.038 C 37.252 4.066 37.08 4.094 36.91 4.127 L 35.482 4.386 L 32.664 4.62 L 32.79 4.768 C 33.287 5.354 33.48 5.887 33.365 6.352 C 33.235 6.879 32.767 7.216 32.398 7.407 L 32.228 7.495 L 32.397 7.584 Z" fill="url(#k)" style="transform-box: fill-box; transform-origin: 50% 50%;" transform="matrix(-1, 0, 0, -1, 0.000007, 0)"/>
  <path d="M 39.553 15.366 C 39.911 15.382 40.274 15.383 40.625 15.384 L 40.907 15.385 L 40.937 15.345 C 41.054 15.188 41.172 14.988 41.267 14.78 C 41.36 14.564 41.452 14.33 41.504 14.087 C 41.64 13.591 41.648 13.07 41.644 12.614 L 41.644 12.524 L 41.556 12.515 C 40.95 12.445 40.306 12.381 39.641 12.326 L 39.537 12.317 L 39.53 12.552 C 39.526 12.744 39.522 12.926 39.493 13.109 C 39.456 13.375 39.41 13.657 39.323 13.935 C 39.256 14.207 39.144 14.472 39.034 14.716 C 38.971 14.851 38.893 14.976 38.809 15.108 L 38.664 15.344 L 38.927 15.35 C 39.136 15.354 39.345 15.359 39.553 15.366 L 39.553 15.366 Z" fill="url(#l)" style="transform-box: fill-box; transform-origin: 50% 50%;" transform="matrix(-1, 0, 0, -1, -0.000001, 0.000001)"/>
  <path d="M 40.301 8.441 C 40.321 8.441 40.343 8.441 40.362 8.438 L 42.026 8.275 L 42.064 8.263 C 42.527 8.012 42.928 7.685 43.225 7.312 C 43.268 7.249 43.307 7.185 43.345 7.12 C 43.367 7.082 43.39 7.044 43.408 7.015 C 43.472 6.933 43.498 6.841 43.521 6.759 C 43.529 6.728 43.538 6.697 43.545 6.676 C 43.626 6.508 43.621 6.339 43.616 6.175 L 43.614 5.984 L 43.379 5.974 C 42.865 5.951 42.356 5.929 41.868 5.917 L 41.23 5.888 L 41.23 5.992 C 41.226 6.798 40.842 7.606 40.147 8.27 L 39.945 8.463 L 40.224 8.442 L 40.301 8.441 Z" fill="url(#m)" style="transform-box: fill-box; transform-origin: 50% 50%;" transform="matrix(-1, 0, 0, -1, -0.000003, 0)"/>
  <path d="M 41.556 12.313 L 41.614 12.314 L 41.644 12.264 C 41.956 11.723 42.179 11.095 42.285 10.445 C 42.322 10.181 42.359 9.833 42.321 9.493 C 42.332 9.273 42.277 9.069 42.224 8.872 C 42.195 8.77 42.167 8.668 42.15 8.564 L 42.136 8.486 L 42.058 8.481 C 41.69 8.457 41.254 8.432 40.822 8.431 L 39.9 8.416 L 39.938 8.546 C 40.111 9.15 40.138 9.792 40.013 10.4 C 39.893 10.989 39.668 11.546 39.327 12.104 L 39.239 12.246 L 39.881 12.282 C 40.44 12.298 40.997 12.307 41.556 12.313 L 41.556 12.313 Z" fill="url(#n)" style="transform-box: fill-box; transform-origin: 50% 50%;" transform="matrix(-1, 0, 0, -1, 0.000002, 0)"/>
  <g fill="#231815" style="" transform="matrix(-1, 0, 0, 1, 58.524602, 0)">
    <path d="m11.2622671 6.0452237c.0047464.3245158.0759382 1.6789379.9421043 2.7628312-.0866175.5475836-.2610369 2.4353504 1.127202 3.681798-.0035601.5143604.1328907 2.0965958 1.8414917 3.2765989.052207.5072412.3001919 2.1262579 1.4131546 3.302701.0415287.4746113.2693424 2.2514381 1.4155293 3.6313705.0344086.519701.2503567 2.7254562 1.4938393 3.7624817-.0593262.6597099-.068819 2.8607216 2.2354202 4.1451378.3049374.4111328 1.7370777 1.5596924 8.5275803 1.2891636 3.0375118-.1228065 5.5191364.5564823 7.690485 1.1491528 1.6534271.4520683 3.2154922.878624 4.7579765.878624 1.6308861 0 3.0671768-.4680862 4.5200806-1.4742622l.1406059-.0972939-.0100861-.170269c-.0100861-.173233-1.2921295-17.4212036-24.5694466-29.0094337-.0949211-.0480545-2.5035744-1.2666192-5.0854607-1.149153-.1471291-.0296631-.6692009-.1222124-1.365694-.1222124-.7486992 0-1.8509846.1121271-2.8536005.6460648-.1174669.0231373-1.6492748.4562201-1.8379326 1.3858652-.1779794.256291-.7558192 1.1936485-.3832492 2.1108347zm14.8140307-.4003048c-.6016445.2654114-1.014185.6309366-1.2140408 1.098577-.1810951.4232941-.1543236.836206-.0883961 1.1377325-.0896568-.0433826-.1772385-.0849853-.2709732-.1322241-.6843319-.2688966-1.4721851-.6300464-2.3650494-.8557091-.4433155-.1216192-.9013901-.2473173-1.3668804-.3750916-.4648972-.1284418-.9551544-.1794624-1.4350319-.2734208-.4812851-.0868387-.9625702-.1737523-1.436367-.2592564-.4795055-.0401196-.9514465-.0796456-1.4081116-.117837-.4221077-.0346317-.8270855-.0678549-1.2171564-.0998912.5090208-.5996418.722002-1.1631684.5952663-1.6726341-.1426058-.5800641-.6603031-.9360228-1.0175962-1.1198604.6644554-.3512866.8994627-.4653416 1.4850883-.4653416.7392082 0 1.2707729.1150932 1.2767048.1162798l.039156.0088987.0403423-.002373c2.4395008-.1121268 4.7995071 1.0720284 4.8220501 1.0833006 1.2581654.6264129 2.4297886 1.2733679 3.5609952 1.9288507zm-9.0182095 4.6645398c-.1257725-.6188488-.3664894-1.1933508-.6984196-1.735446l.4718666-.0262518c.5574455-.0158701 1.1151886-.0245466 1.6730061-.0310726.3101273.5358658.5277081 1.160944.6302681 1.7818689.0440502.3148012.068819.6293793.0350037.9435129.0151272.3143559-.1185055.6033497-.1714535.9066563-.4095764.026845-.8194466.0487957-1.2299118.0505018-.2624454.0041523-.5249653.0088243-.7874107.0125322.179018-.6196641.2051219-1.2792262.0770511-1.9023017zm19.4155369 8.1213427c-.0505753.4549599-1.4199791 2.131525-3.6894379 2.181284-.1274033-.1071587-.2571068-.2114239-.3793182-.3254051l-.9218578-.8720989.0002232.0001488c-.0290699-.7878551-.5277824-1.4395561 1.2947235-1.7939568 1.8225098-.3544006 2.3287849-1.2150059 2.3794365-1.9237337.0501289-.7027216 1.2596474-.8134394 1.2804108-.8152933.1419411.1328173.285881.2633352.4292259.3944464.4281883.4184742.8239708.8706903 1.2377739 1.304143.195034.1941452.3706398.4058666.5435791.6199608-.2413864-.1830959-.4710541-.2733459-.656002-.1870251-.7593803.3544006.101223.6872215-.3544006.9004993-.4556276.2132796-1.1137087.0614032-1.1643564.5170306zm1.8150902 3.0430756c1.2546806 1.0692101 3.0802307 3.9231071 3.6124611 4.7763691-1.2078133-.8416195-2.1205482-1.4375534-2.5166283-1.9216576-.3231049-.3948174-1.4367371-1.5329189-1.9917336-2.283474.2838745-.1767177.5923005-.3714561.8959008-.5712375zm-3.8898087 1.4848651c-.1860657.0399704-.429081.0679283-.674099.1387501-.2644463.083725-.5833244.1654472-.914814.2945557-.6657906.2467232-1.4761887.507019-2.3470268.8132172-.8712082.307682-1.8194656.6181812-2.7810745.8805523-1.0272369.2656345-2.064188.4507313-3.0389214.5884438-.0063763-.0038567-.0121613-.0081577-.0186138-.0120144-.0370789-.3292618-.0655556-.66008-.1170216-.9881554-.1121998-.3499508-.1505394-.7230396-.3304482-1.0540085-.0831299-.1662617-.1383781-.3465405-.2460556-.5012341-.1067867-.1544704-.2008209-.3183594-.3204365-.4644508-.0905476-.0914364-.1747913-.1888065-.2652645-.2806892.6403561-.0367813 1.2949486-.0969238 1.9642982-.1135349.8812943-.0415287 1.7642193-.0856533 2.5921211-.1477222.8228569-.122139 1.5879459-.2694912 2.2419453-.4034195.9203014-.186285 1.5599136-.5132484 1.8650723-.6942692.3836937.34758.7913437.6717243 1.1857872 1.0092907.3916284.3423136.7954217.6431731 1.2045518.9346884zm-6.7208691-7.072525-.0161667-.0504274c.2285557.3891077.47995.7622709.7144375 1.1485586.0830574.109457.1664104.2192116.2499142.3286686.0255089.108717.0369301.2025261.02981.275053-.2911434-.0867653-.6199608-.1624069-1.0258274-.1809464-.6089115-.0126801-1.3208294.0058594-2.0776119.0821667-.7489948.1211014-1.543005.2998219-2.3350868.4589653-.5637493.1057491-1.1208992.1930332-1.6674442.2714176-.0278835-.2756443-.0493889-.5527-.0885448-.8281975-.0839462-.3017483-.1135349-.6192188-.2467232-.9100666-.1001873-.3013783-.2498379-.5849581-.418623-.8601589-.0865421-.11057-.1653709-.2268496-.2593307-.3333406.263113-.025732.5240765-.0511684.7894135-.0771236.7322369-.0687447 1.4638042-.1529884 2.1497669-.2419777.3433514-.046052.6715012-.1104956.9915676-.1303701.3183594-.0352993.6322708-.0089731.9251213-.001112.1943684 0 .3598137-.0129776.5314159-.0230637 1.3070353.3114643 1.7539118 1.0719547 1.7539118 1.0719547zm-1.8851718-6.7526817c1.2910175.4687529 1.8733063.9857082 2.1393108 1.3618374-.0870609.1357832-.2322636.2752752-.4067574.4104652-.5208855.1287384-1.0485191.2588854-1.5909863.3587761-1.3343983.2249212-2.688673.463191-4.0534782.6230021-.6816597.0918818-1.3664341.1578817-2.0523968.2034149-.1384525.0100117-.2771282.0189104-.4155807.0289221.0704498-.2800207.1650009-.5574465.1546936-.8474779.0371532-.3480978.0114193-.6921911-.0361156-1.0349493-.1012249-.6061678-.3016014-1.1793356-.5882225-1.7289944.7298641-.0028181 1.4595795.0090466 2.1884041.0498333 1.4315472.0728235 2.8581257.2347851 4.2643833.4891472.1334114.0239524.2642994.0580654.3967457.0860233zm-4.4964238-.8945685c-.7810326-.0398235-1.6076717-.0175753-2.4312706.0156469-.0121632-.2246246-.0169086-.4495459-.1261425-.6474738-.056139-.1262169-.0901775-.2643733-.1816883-.3667855-.0805359-.1087155-.1560287-.2212873-.2409382-.3234773-.2783909-.2951488-.6074295-.5159917-.9531536-.7037597.2114239.0205417.4168415.0404902.6320477.0614028.4646759.0926232.9367657.186656 1.4089298.2807622.4683819.1093831.9469967.1756063 1.3983974.3182864.4521408.1381564.897089.2741623 1.327652.4057188.4353809.1168728.8390236.2777214 1.2199726.4344177.3833237.1495023.7532234.2745328 1.0833015.414988.4206982.1893253.7689438.3566999 1.0797405.5061283-1.3975829-.2201746-2.8065108-.3523243-4.2168483-.3958548zm5.0067044 5.1315871s-.0012589-.0001478-.0017796.0002966c-.0034103.2505054-.1256981.3437967-.6109123.6301947-.2422009.1350422-.8653507.2000046-1.328764.297967-.3076077.0649624-.6261158.146759-.9599018.2204723-.6721687.1279964-1.39254.2545099-2.1162472.3659697-.3353424.0528746-.6708336.0989265-1.0029888.1414194-.019577-.0172043-.0435295-.0342607-.064888-.0513172-.0086021-.4852905-.0384884-.9730272-.1789436-1.4434862-.0611057-.2575512-.163517-.5046453-.2733459-.7464008-.0644436-.1291828-.1322975-.253027-.2086811-.374794.0951462-.0005932.1900673-.0028925.2852116-.0040789.6894474-.0135708 1.3796368-.0176497 2.0717545-.0159445.6082439-.0094175 1.2185631-.0169077 1.8294029-.0359659 2.0532149.0964049 2.4785098.7231148 2.5600833 1.0156678zm2.769804 4.9536075c.0884705-.0375233.1675968-.0758629.2367859-.1121998.0427895.0545788.0825386.1115322.1259212.1655941l1.1673946 1.3003616.5911884.5693855c-.3693066.0050411-.8310146.0433807-1.3502693.1669292-.6274509.1475735-1.3572407.3285942-2.1361217.5584087-.7970505.1771641-1.6471996.3661938-2.4974213.5551472-.7946033.1800556-1.5897255.3469868-2.3502159.4690495-.0031891-.0018539-.0064526-.0037804-.0097141-.0057087l-.0450153-.914444c-.0704498-.3480968-.0950699-.7020531-.2051201-1.0421429-.09025-.3451309-.2242546-.6765423-.3934078-.9954967-.1091614-.1699696-.2208424-.3350468-.3498783-.4907036.463562-.0086021.9345398-.0036335 1.4088535.007267.8024654.033371 1.6030006.0864697 2.3488827.0896568.7426186.0555458 1.4301376.056139 2.020731.0273647.590002-.0437525 1.0851554-.1958502 1.4374065-.3484686zm-4.8232384 7.4004536c-.7062073.0918064-1.3820095.1652241-1.9673386.2155762-.057251.0044498-.1021156.0058594-.1577339.0098629-.0377464-.6675701-.1466103-1.3385525-.3884411-1.9780159-.1311111-.3406086-.2961864-.6729851-.5148792-.9756241-.1116066-.1495018-.2290001-.2961121-.366785-.4275208-.0071182-.0068226-.0146828-.0125332-.0218029-.0192814.5502529-.0605869 1.1537514-.1062679 1.8084183-.1377106.0932159.0545807.1905861.1104946.278019.1847267.1334839.0917339.2315216.230854.350544.3431301.1070099.1253262.1923656.2706013.2908478.4045315.0995216.1340771.1512833.2993755.2301121.4473953.1713066.2929249.2113514.6441364.3242931.9645004.0559901.3193971.0895842.6450254.1347464.9684297zm-3.7458706-3.4715614c-.0077877-.647028-.0727501-1.2996178-.2681561-1.9281082-.1046371-.3398666-.243906-.6734295-.439682-.9780693-.1342258-.2017841-.2944088-.3822861-.4786911-.547287.4917431-.0746021 1.0205631-.1521721 1.599144-.2025261.1675968-.0192814.3466892-.0175743.5196991-.0269184.1805744.1726398.3377171.4040127.4677887.6321964.141716.2961884.2528801.6042404.3240719.9296455.0903244.317173.0990753.6574116.1536541.9832611l.0091228.9487038c-.6805496.0885448-1.325428.1589203-1.8869514.1891022zm-1.4216099-3.7635193c-.0225449-.2428665-.0416775-.4863281-.0739346-.728899-.0780144-.2998219-.1053791-.6130638-.2276669-.9042091-.0921783-.2999687-.2298889-.584959-.3851757-.863718-.0934391-.1310377-.1715279-.2712708-.2800217-.3945951-.0198746-.0235825-.0407124-.0450144-.0604382-.0677061.5837727-.0571022 1.2125587-.1185045 1.8873215-.1844311.0765324.0561371.1591434.1196909.2321148.1948872.1027088.0927715.1805.2153549.2734947.3214006.1585503.2370825.3059769.4854383.4097233.7590075.1354122.2592564.1741982.5581131.2668953.8369484.0492401.2651882.0817966.5354195.1218414.8043919-.7839983.1062677-1.5189055.1828726-2.1641539.2269228zm-1.2331733-3.2131186c-.0063782-.2332277-.0042267-.4669733-.0421963-.6970863-.0390072-.28269-.0854301-.5635262-.1711559-.8359089-.068819-.2760162-.1790924-.5406866-.2955952-.7994976-.0783844-.1704893-.1845055-.3285198-.2838764-.4891462.2393818-.0056362.4786892-.0106792.7180729-.0186138.4323406-.0198746.865572-.0167599 1.2985802-.018465.1186523.1575108.2298164.3514347.3185081.5440226.0932178.219656.1817627.4440584.2314472.6802521.1291847.4653416.141716.9544878.1374149 1.4379978v.0001488l.0003719.0082312c-.682476.0786074-1.3289127.1398619-1.9115714.1880653zm-1.559248-6.9185734c-.0042267-.9349847-.4843254-1.7490916-1.1134081-2.349401.0461264.0033369.0897312-.0026698.1363029.0034113.4122438.0407128.8469591.0836501 1.2967272.1280708.1188755.0115685.2456856.0238791.3664894.0355959.4329338.2338943.8290119.5460997 1.1272755.9203753.0677814.0979629.1239929.2024512.1867294.3016009.0743809.0946994.0870628.2138715.1254768.3208075.0849838.176867.0610313.3676753.0594006.5528483-.5604134.0243235-1.1171913.0498343-1.65061.0617733zm12.2955513 1.0605336c-.553072-.2924051-1.3623581-.6149187-2.5606785-.8858919l-.0020752.0043011c-.2255898-.1617384-.5322323-.3114634-.8820362-.4783192-.0826111-.2312989-.2056408-.7154765.0017052-1.1986904.1894741-.4413886.623373-.7782145 1.2646923-1.0168548.9291248.5463963 1.8064156 1.1027298 2.6529293 1.664032.2149086.8204846-.1780548 1.5249858-.4745369 1.9114232zm.6023102 1.8661127c.1640377-.1187267.3323765-.2525826.4653416-.4557009.0550251-.0766058.0980377-.1750135.128664-.2785378.9960175.3396435 1.9679317.8243408 2.8775558 1.3901663.6031265.3626328 1.1726608.7765827 1.7310715 1.2061806-.9789619-.6078739-1.5110474-.4338245-1.5110474.0191326 0 .6075029-1.4681797 1.0125542-2.632534 1.4681807-1.1643562.4556265-.7593784 1.4681063-.9930496 1.9743834-.0378952.0821667-.0795727.1303692-.1220646.1656685-.0563602-.0700779-.1133137-.1393433-.1701183-.2091255-.304493-.4690495-.6610451-.9131813-.9257145-1.404108-.2654114-.4314508-.4792843-.8802557-.6741714-1.3364754.1166515-.1202106.238493-.2353783.3312645-.3762779.0650368-.1051559.1418648-.2011166.186655-.3211784.0469418-.1171694.111311-.226182.1405296-.3514347.0670395-.2513962.1027088-.5070934.0623665-.7710218.0003719-.0723782-.0273647-.1367474-.044569-.2040825.0419731-.0128288.0843925-.0172787.1263657-.0310726.3454284-.1169474.6909312-.2614071 1.0234546-.4846966zm16.776844 17.2301731c-.4347878-1.0716572-.8548927-2.1532516-1.3463364-3.2023659-.574131-1.0781841-1.05616-2.2067947-1.7074165-3.2446365l-.9383202-1.5783062c-.331337-.5146561-.6921921-1.0108471-1.0372505-1.5172729-.3375664-.5122089-.7056847-1.0026894-1.1040611-1.4706268-.3978615-.4672699-.7503319-.9726582-1.1868286-1.4072971-.4245529-.4440584-.8307152-.9059887-1.2708435-1.334919-.454071-.4150629-.8960533-.8435478-1.3605766-1.2468929-.4859581-.3785028-.9454422-.7908955-1.4546127-1.1394386-.5099106-.3475046-1.0088463-.7098408-1.5497551-1.010848-.9374313-.5560369-1.9134979-1.0412531-2.9688416-1.3874969.2902546-.4459114-.3170986-1.5932846-.757597-2.3141751 11.170721 7.486253 15.2419948 16.0736038 16.6824398 20.8542759zm-5.7123184-9.2638207c.0328522.0473862.0726776.0892124.1048622.137043.3448334.4921875.705761.9738445 1.038063 1.4749298l.943512 1.5398922c.6551132 1.0119591 1.1449242 2.1200294 1.7264748 3.1760387.2768288.5358658.4915924 1.1016922.7550774 1.6448994l.7644196 1.6440105c.0950699.2324104.2023773.4618549.300415.6935253-1.4884262-2.5804024-4.4198189-7.3236256-6.6058502-8.784687.2430153-.1892509.425148-.3540287.4850693-.463932.2519148-.4620037-.3688623-1.0722503.4879569-1.0617199zm5.7634887 10.7439404c-.6795845-.7301598-2.3911514-2.5247097-3.5682602-3.3626957-.085804-.0611057-.1568451-.1091595-.2401237-.16782-.9189682-2.0187283-3.0409241-4.3988304-3.7153931-5.1275082.184433-.1237698.3558121-.2433128.51688-.3599625.3439484.2192117 2.1866265 1.6400796 7.006897 9.0179864zm.6950112 1.84305c-.667572-.7276382-1.3771172-1.411005-2.0924454-2.0887356-.8390961-.7885952-1.7404137-1.5038509-2.6281586-2.235939l-1.3488617-1.0769215c-.4455414-.3641167-.928978-.680624-1.3917236-1.0233078l-2.8066597-2.0193977-.3150215-.2272186c.0168343-.1942196.1077499-.4114304.3909607-.5842915.1258469-.0767536.3228073-.1967411.5428352-.3319321.642952.6981983 1.8741226 2.005085 2.7912331 2.7873039 1.2810822 1.0927181 3.6046028 2.3673477 6.3702507 5.3043022.1353378.3084221.2610359.6192188.4013443.9265289.038414.2269994.0671844.4216634.0862465.5696088zm-4.5254479 1.432188c-1.2923508 0-2.0672035-.2683525-3.512764-.6585732.3347473-.3116837 1.5550919-.9309044 4.2178841-.1701164 1.3912048.3974876 2.2783585.3488388 2.2783585.3488388s-1.0459786.4798508-2.9834786.4798508zm-15.4549522-1.979475.0355968-.5047188.0288467-.417881s1.8193188.0990009 5.5782413-.0528736c3.7589226-.1518764 8.3911285 1.40485 8.3911285 1.40485-1.0345764-.1254025-2.134491.5446167-2.490818.7845154-.0561371-.015274-.107975-.0286217-.1646309-.0441208-2.211689-.604538-4.7508621-1.3016243-7.8738041-1.1705112-1.4402235.0577678-2.5811442.0485725-3.5045603.00074zm-.2028217-3.0012493c-.0994453-.2643738-.1376381-.5529213-.297226-.793417-.1460915-.2433853-.2494678-.5141373-.4328594-.7337189-.1850986-.2169132-.339941-.4608173-.5669384-.6405773-.0613289-.058733-.1274776-.1099014-.1916237-.1636658.8790684-.0949974 1.80686-.1873989 2.7447357-.2619267 1.00284-.0740833 2.0150967-.1273289 2.9646168-.2398281.9497414-.1110878 1.8292542-.2943325 2.5761757-.5352726.3755341-.1133137.7110252-.2376766.9952011-.4173603.2820206-.1796856.5188828-.3172493.6950836-.5110226.146904-.1474266.2470207-.2719383.3237-.3755379.2161674.1500225.4330826.3013058.6502914.4596329l2.8018379 1.9660778c.4625244.334156.9444771.6410961 1.3913536.9976463l1.3521957 1.0536385c.4471741.3558102.9139252.6870003 1.3702202 1.031908.4658585.3331184.9044304.6999035 1.3609467 1.0456295.8079529.6081696 1.1147079.8403931 1.9466133 1.4266872.0033379.0288467.2922974.2886162.2922974.2886162-6.7509041-2.2644901-6.9170227-3.2043972-9.7267227-4.4953403-2.8096962-1.2909431-4.207428-.4485073-4.207428-.4485073 2.9995422.4935951 2.9164848 1.4356995 2.9164848 1.4356995-3.0754814-.4556274-7.6127644 1.5757103-8.0683918 1.7845383-.2601471.1192455-.4734993.1311111-.6169949.1211739.0089722-.1113853.0248432-.2226219.0051918-.3345261l-.0938854-.8382835c-.0121612-.2829113-.0905456-.5539589-.1848754-.8222637zm-2.4963074-.1578083c-.1392689-.4918156-.366045-.9743614-.7146606-1.3695507-.1772385-.1930332-.3679733-.3778343-.5931911-.5179195-.0098629-.0063038-.020319-.0106773-.0301819-.0168343.5492878-.0657024 1.1484852-.1360054 1.7895813-.2078648.1698971.1070099.3419437.2343407.4913712.3805046.2069016.1607018.3475056.3879223.5182915.5850334.1695251.1999302.2627411.4531059.3991928.676321.1497974.2195091.1825027.4927063.2761631.7379475.0888424.2493935.1635933.5024204.1739006.7714653l.0901775.7925262c.0244713.1314831-.0094929.2665997-.0112724.3997135l-.0278835.4008236-.0343361.5044975c-1.0099583-.0689678-1.7165356-.1880665-2.2079811-.3219204.1197661-.9269007.1502436-1.8868025-.1191713-2.8147429zm-3.1252422-1.6659603c.3059769-.0448647.6810665-.0967751 1.0879726-.1506138.1738262.0534668.3608532.1390457.5227394.2459812.1945171.1197662.35989.2815037.515398.449398.3053837.3447609.5100594.7751732.6379814 1.2262039.2434616.8284187.2255154 1.722023.1176891 2.5969391-.7369823-.2674141-.7808838-.543726-.7847404-.5492134l-.0427151-.0907707-.0794964-.0302563c-2.3324184-1.2563114-2.0110168-3.4884681-1.9748286-3.697668zm-1.5046654-3.7576618c.2281837-.0258808.4866238-.0552464.7650127-.0869122l.0136452.0071182c.1066399.0556927.2487259.1629257.3600368.2698612.1184311.1077518.2229939.2333755.3235531.3619652.1974812.2613335.3531399.5578918.4795055.8671303.2335224.5801392.3513603 1.210186.4006748 1.846981-.406311.0240269-.7791042.0408611-1.0715828.0476093-1.0568999-.8977584-1.2458552-2.9262771-1.2708453-3.313753zm-1.4206467-3.7011528c.2646694-.0484238.5666428-.0981846.9072495-.1431236.0079346-.0011864.0177231-.0026703.0257339-.0038567.225811.1549892.4366417.406683.5887394.6670513.1643353.2790565.2797985.5884438.3635979.9056168.160181.5962315.1984463 1.2244244.1789417 1.8502445-.2985592.0176487-.5747242.0301075-.8114357.034111-1.0896778-1.3485622-1.2412586-3.1382923-1.2528267-3.3100433zm-1.4170856-3.3305846c.2561417-.024992.5579643-.0545063.880331-.0860233l.0526505.0358181c.0844669.0574722.1946659.1622581.2835064.2621489.0959606.0983334.1701927.2214355.2576256.3308926.1480198.2423496.2855091.4940414.3826561.7682781.1259193.2617035.1630726.5580387.2504311.8366508.0402679.2277393.0689678.4590378.1009293.689743-.4016399.0312214-.7413578.057621-1.0341339.0804615-.9980928-1.140625-1.158867-2.7058782-1.1739961-2.9179697zm-1.8305169-3.0961723c.3247385-.0227661.6503658-.0562115.9751787-.0708208.3001909-.0212831.6005316-.0313692.9008722-.0402679.2735672.4070539.4832878.8981285.6120262 1.3891287.0744534.2524338.110939.5121355.1417885.7725039.033371.2261076.0223961.4555531.0264015.683589-.0340385.0026693-.0743809.0062294-.1077518.0088243-.3385315.0229893-.6256714.0384884-.8838902.0510206-1.5345515-1.0126277-1.6648473-2.3650475-1.6646251-2.7939778zm-1.1154851-3.7404566.0103827-.0482025c.3488388-.0763092.7034626-.0942554 1.0557137-.1239185l1.2281313-.0683737.0267706.0406389c.6806965 1.0325022 1.0302773 2.3896685.6334572 3.5730076-.2889194.000371-.5778389-.0006676-.8668327-.0156469-.3776865-.0100117-.7544088-.0520592-1.1320219-.0796461-1.3783018-1.1998024-.960273-3.2567978-.9556009-3.2778588zm-.9411393-2.5095076c.3635969-.079349.9615326-.2670431 1.4694414-.3059764.2522116-.0018539.5246677-.0207639.8040953-.0212092.6203318.6443591 1.043478 1.5242443.9524117 2.3730569l-1.2342863.0574732c-.3997116.0305529-.7972727.0671129-1.2026205.026845-.5931902-.7541133-.7509985-1.6727086-.7890416-2.1301895zm-.1251783-.7619c-.0596972-.6399093.4100933-1.2689919.4161005-1.276556l.0510206-.0676322.0106783-.0854301c.0486479-.455627 1.0097361-.8543005 1.4677362-.9759197.0066738-.0034854.0114946-.006155.0180941-.0095663.2588863.1077516.9171867.4324896 1.0604601 1.0157423.1122007.4567394-.1208773.989491-.6816607 1.581346-.3138371-.0100856-.6181068-.0060067-.8996849-.0166855-.5727224-.0256586-1.0426616-.0818706-1.4427442-.1652985z"/>
    <ellipse cx="22.209759" cy="10.3125" rx="1.38467" ry=".9375"/>
    <ellipse cx="20.825089" cy="7.584774" rx=".964327" ry=".637398"/>
  </g>
</svg>